<?xml version="1.0" encoding="UTF-8"?>
<svg xmlns="http://www.w3.org/2000/svg" width="1024" height="1024" viewBox="0 0 1024 1024" style="background: transparent;">
  <path id="22" d="M 0,512 C 0,512 0,0 0,0 C 0,0 512,0 512,0 C 512,0 1024,0 1024,0 C 1024,0 1024,512 1024,512 C 1024,512 1024,1024 1024,1024 C 1024,1024 512,1024 512,1024 C 512,1024 0,1024 0,1024 C 0,1024 0,512 0,512M 626,877.001 C 643.806,870.750 671.068,853.333 687.898,837.457 C 695.582,830.208 697.153,826.942 698.522,815.355 C 698.903,812.135 700.534,804.676 702.147,798.780 C 705.666,785.921 711.103,760.206 713.941,743 C 715.075,736.125 716.242,729.062 716.536,727.305 C 716.963,724.752 718.505,723.066 724.208,718.918 C 728.134,716.063 735.043,710.437 739.561,706.417 C 744.079,702.397 748.051,699.384 748.388,699.721 C 748.725,700.058 749,702.523 749,705.199 C 749,713.947 752.505,718.850 760.370,721.106 C 765.048,722.448 769.703,721.146 773.698,717.378 C 775.668,715.520 777.597,714 777.985,714 C 778.373,714 779.547,714.962 780.595,716.138 C 788.750,725.290 803.918,720.938 809.413,707.869 C 810.730,704.737 810.987,704.617 815.812,704.873 C 820.388,705.116 821.211,704.804 824.984,701.395 C 830.262,696.627 831.607,693.953 834.675,682.129 C 836.649,674.522 837.280,669.140 837.677,656.500 C 838.056,644.449 838.635,639.237 840.026,635.383 C 844.625,622.637 846.405,598.996 843.970,583 C 843.426,579.425 842.521,573.006 841.958,568.736 C 840.988,561.381 832.741,531.677 831.068,529.513 C 830.637,528.956 827.937,523.168 825.068,516.650 C 816.787,497.838 807.411,481.887 799.455,473.081 C 796.372,469.668 796.048,468.641 794.927,458.677 C 794.263,452.776 793.995,447.671 794.331,447.335 C 794.667,446.999 796.868,447.227 799.221,447.841 C 813.857,451.662 814.483,448.670 802.743,431 C 800.002,426.875 794.399,419.343 790.292,414.262 C 784.751,407.406 782.463,403.667 781.424,399.762 C 779.060,390.881 778.871,391.111 788,391.737 C 795.378,392.243 795.999,392.139 795.990,390.393 C 795.967,385.842 785.297,367.540 771.569,348.500 C 767.218,342.465 763.443,335.922 762.049,332 C 760.778,328.425 757.969,321.966 755.806,317.647 C 753.643,313.328 752.136,309.530 752.458,309.208 C 752.780,308.886 756.249,309.393 760.167,310.333 C 764.085,311.273 767.523,311.811 767.808,311.526 C 768.808,310.526 766.134,306.258 760.843,300.404 C 752.874,291.588 752.728,291.170 755.575,285.394 C 766.483,263.260 762.771,232.498 747.166,215.717 C 741.368,209.482 735.357,206.595 730.042,207.493 C 725.188,208.313 723.081,210.646 718.601,220.160 C 716.027,225.626 713.532,229.134 709.889,232.410 C 707.081,234.935 704.495,236.997 704.142,236.994 C 703.789,236.991 700.350,234.463 696.500,231.375 C 692.650,228.287 686.688,223.974 683.250,221.791 C 679.812,219.608 677,217.500 677,217.107 C 677,216.714 678.575,214.866 680.500,213 C 686.147,207.527 684.707,204.861 675.250,203.281 C 673.463,202.982 672,202.328 672,201.826 C 672,201.318 666.135,200.954 658.750,201.006 C 646.046,201.095 645.191,200.970 638,197.955 C 626.920,193.309 611.450,188.301 599.339,185.439 C 590.311,183.306 586.990,181.923 578.070,176.578 C 564.964,168.725 561.587,167.001 559.300,166.997 C 558.310,166.995 554.182,165.641 550.127,163.989 C 540.989,160.265 535,159.141 535,161.150 C 535,161.923 536.588,165.869 538.528,169.917 C 540.468,173.965 541.888,177.445 541.683,177.650 C 541.478,177.855 535.340,177.646 528.042,177.186 C 512.410,176.201 495.575,177.233 481.930,180.014 C 471.942,182.049 452.047,188.373 446.331,191.329 C 443.237,192.929 443.032,192.888 435.933,189.231 C 420.870,181.471 414.136,171.570 413.570,156.350 C 413.256,147.908 413.133,147.508 409.969,144.681 C 406.891,141.931 406.293,141.782 400.096,142.227 C 396.204,142.506 391.812,143.562 389.382,144.803 C 384.746,147.170 374,156.609 374,158.313 C 374,158.925 372.237,163.042 370.083,167.463 C 363.164,181.659 361.315,196.912 364.589,212.792 C 366.249,220.844 370.925,232.052 375.326,238.529 C 375.326,238.529 377.905,242.325 377.905,242.325 C 377.905,242.325 375.884,245.162 375.884,245.162 C 373.620,248.341 371.959,248.667 368.715,246.565 C 364.687,243.955 351.373,240.048 344.381,239.426 C 334.988,238.590 324.562,240.914 314,246.200 C 307.086,249.660 303.447,252.452 294.500,261.157 C 288.450,267.043 279.900,274.692 275.500,278.156 C 271.100,281.620 259.465,292.339 249.644,301.977 C 218.821,332.225 201.479,355.447 195.112,375 C 193.102,381.171 192.713,381.652 187.428,384.500 C 184.366,386.150 181.203,388.226 180.399,389.114 C 179.101,390.546 179.193,390.895 181.218,392.212 C 182.473,393.028 185.181,394.247 187.236,394.921 C 189.291,395.595 191.224,396.554 191.532,397.052 C 191.840,397.550 190.271,400.977 188.046,404.666 C 185.821,408.355 184,411.740 184,412.187 C 184,412.634 186.469,413 189.486,413 C 189.486,413 194.971,413 194.971,413 C 194.971,413 198.104,419.250 198.104,419.250 C 207.851,438.700 227.625,456.857 252.500,469.198 C 257.450,471.654 264.087,474.691 267.250,475.948 C 270.413,477.205 273,478.554 273,478.946 C 273,479.338 270.556,484.349 267.568,490.080 C 260.726,503.206 256.785,514.676 257.643,518.967 C 258.010,520.802 257.750,523.098 257.021,524.461 C 255.305,527.667 256.904,532.390 259.852,532.823 C 261.059,533 264.276,532.405 267.001,531.500 C 269.726,530.595 272.452,530.161 273.059,530.536 C 273.826,531.010 273.956,534.771 273.485,542.859 C 272.713,556.123 274.039,572.935 277.109,588.793 C 278.249,594.682 279.309,601.300 279.465,603.500 C 280.579,619.240 299.546,655.748 315.562,672.978 C 324.004,682.060 325.522,684.587 326.927,691.892 C 328.378,699.439 333.194,713.457 336.754,720.500 C 338.807,724.561 345.325,734.584 350.440,741.547 C 351.115,742.466 349.105,745.232 343.309,751.355 C 325.937,769.708 325.512,781.667 342.130,784.548 C 345.543,785.140 345.789,785.435 346.247,789.497 C 346.515,791.873 347.697,795.170 348.874,796.823 C 353.733,803.647 366.872,806.668 378.480,803.633 C 383.675,802.275 384.566,802.260 385.269,803.516 C 385.714,804.311 388.013,806.095 390.377,807.481 C 394.106,809.666 395.858,809.999 403.588,809.991 C 411.074,809.983 414.048,809.449 422.174,806.647 C 437.354,801.414 463.708,785.496 480.090,771.668 C 480.090,771.668 487.680,765.261 487.680,765.261 C 487.680,765.261 497.090,767.071 497.090,767.071 C 502.266,768.066 511.450,769.377 517.500,769.982 C 538.605,772.094 536.407,771.275 538.449,777.786 C 541.515,787.563 548.763,800.270 556.096,808.724 C 556.096,808.724 558.893,811.947 558.893,811.947 C 558.893,811.947 553.123,817.724 553.123,817.724 C 545.300,825.556 538.256,835.337 536.953,840.175 C 534.825,848.079 538.400,853.731 546.152,854.717 C 550.823,855.311 553.320,856.673 552.418,858.133 C 551.362,859.841 554.038,865.645 557.372,868.876 C 563.281,874.603 574.073,876.435 585.032,873.571 C 590.371,872.176 590.560,872.199 593.030,874.547 C 599.231,880.442 613.230,881.484 626,877.001" stroke="#FEFEFE" fill="#FEFEFE" stroke-width="1"/>
  <path id="24" d="M 471,712.945 C 429.211,709.130 377.153,691.520 343.500,669.815 C 330.653,661.529 313.913,647.732 304.369,637.563 C 295.379,627.984 285,614.360 285,612.136 C 285,611.566 284.434,610.740 283.742,610.300 C 281.896,609.127 279.351,600.946 277.066,588.840 C 273.924,572.192 272.784,556.971 273.541,541.750 C 273.917,534.188 273.869,528 273.433,528 C 272.997,528 269.775,528.968 266.272,530.151 C 258.496,532.778 257.686,532.218 257.798,524.307 C 257.904,516.802 262.458,503.722 269.682,490.177 C 272.710,484.499 274.955,479.622 274.672,479.339 C 274.389,479.056 275.924,476.090 278.084,472.748 C 282.098,466.538 284.361,460.305 283.809,456.983 C 283.537,455.348 282.647,455.654 276.500,459.494 C 272.650,461.899 268.263,464.171 266.750,464.542 C 264.151,465.180 264,465.028 264,461.765 C 264,451.919 272.250,436.816 292.753,409.124 C 302.173,396.401 302.224,396.388 305.455,406 C 325.153,464.604 369.089,501.053 443.500,520.522 C 495.432,534.109 541.961,532.263 582.697,515 C 589.186,512.250 594.972,510 595.553,510 C 597.814,510 609.596,560.450 613.502,586.856 C 617.651,614.906 605.732,651.443 584.147,676.835 C 561.012,704.051 519.320,717.357 471,712.945M 576.834,648.015 C 583.819,644.284 588.769,638.944 592.216,631.420 C 594.924,625.510 595.375,612.643 593.072,607 C 585.734,589.016 566.362,582.226 551.234,592.336 C 539.338,600.287 537.361,618.536 547.286,628.791 C 551.563,633.210 559.343,635.523 564.897,634.028 C 572.677,631.933 578,625.422 578,618 C 578,610.205 572.682,604 566.002,604 C 559.861,604 554.883,610.413 556.383,616.390 C 557.663,621.491 563,619.911 563,614.431 C 563,609.218 568.880,608.882 570.989,613.974 C 572.447,617.495 571.034,622.754 567.857,625.629 C 564.600,628.577 555.945,628.223 552.452,625 C 546.958,619.931 545.618,612.581 548.896,605.500 C 553.907,594.676 564.734,591.073 575.751,596.563 C 581.817,599.586 586.204,605.511 588.039,613.161 C 591.290,626.714 581.475,641.527 566.932,645.016 C 553.732,648.183 538.816,640.490 532.280,627.143 C 529.888,622.258 529.516,620.291 529.509,612.500 C 529.501,604.463 529.835,602.805 532.626,597 C 537.374,587.126 541.870,582.604 551.646,577.872 C 558.732,574.442 560.060,573.428 559.805,571.638 C 559.554,569.879 558.856,569.519 555.868,569.604 C 546.712,569.865 532.436,581.532 527.027,593.175 C 519.112,610.212 522.144,629.224 534.666,641.074 C 543.914,649.825 549.896,652.153 562,651.709 C 569.413,651.437 571.310,650.965 576.834,648.015M 331.169,611.487 C 336.678,605.678 341.650,596.486 344.005,587.757 C 346.917,576.964 346.519,559.610 343.161,551.023 C 338.477,539.045 328.123,528.457 318.575,525.885 C 300.313,520.965 283.745,530.553 279.286,548.623 C 274.744,567.027 287.010,587.679 303.648,589.643 C 310.345,590.434 316.366,588.566 321.213,584.196 C 326.623,579.318 328.953,574.002 328.968,566.500 C 329.005,548.220 310.726,535.879 299.155,546.373 C 291.495,553.320 292.517,566.535 301.077,571.218 C 307.353,574.652 315.405,570.732 314.797,564.540 C 314.406,560.556 311.605,560.056 308.491,563.416 C 305.610,566.525 304.614,566.614 302,564 C 296.973,558.973 301.857,549 309.346,549 C 315.909,549 322.927,557.771 322.978,566.038 C 322.990,567.984 321.987,571.580 320.750,574.030 C 313.268,588.840 292.499,584.651 286.528,567.128 C 284.310,560.619 284.550,550.937 287.060,545.596 C 296.377,525.775 323.205,526.426 334.262,546.741 C 344.105,564.825 340.357,593.982 326.519,606.982 C 323.778,609.557 323.321,611.921 325.200,613.800 C 326.962,615.562 327.504,615.351 331.169,611.487M 428.634,598.446 C 435.089,591.501 438.902,585.569 437.691,584.358 C 437.294,583.961 435.514,585.024 433.735,586.719 C 424.745,595.285 418.800,596.954 414.084,592.238 C 411.275,589.429 407.257,580.164 406.273,574.226 C 405.975,572.425 405.309,570.691 404.793,570.372 C 404.277,570.053 401.178,570.993 397.908,572.461 C 386.135,577.745 383.514,574.530 384.238,555.702 C 384.466,549.763 384.299,544.685 383.866,544.417 C 383.433,544.149 382.050,547.208 380.792,551.215 C 379.035,556.813 378.505,560.868 378.503,568.725 C 378.501,578.522 378.614,579.064 381.222,581.674 C 384.904,585.359 389.605,585.165 396.213,581.058 C 398.987,579.334 401.360,578.053 401.487,578.212 C 401.614,578.371 402.727,581.870 403.960,585.988 C 406.885,595.754 409.187,600.138 413.138,603.463 C 417.972,607.531 421.146,606.503 428.634,598.446" stroke="#FEE8AE" fill="#FEE8AE" stroke-width="1"/>
  <path id="84" d="M 543.046,854.050 C 540.935,852.714 543.200,848.909 549.480,843.241 C 555.623,837.697 567.800,829.467 568.631,830.298 C 568.965,830.632 567.161,833.279 564.623,836.181 C 562.085,839.083 558.406,844.504 556.449,848.228 C 552.914,854.955 552.863,855 548.695,854.985 C 546.387,854.977 543.846,854.556 543.046,854.050" stroke="#EB7122" fill="#EB7122" stroke-width="1"/>
  <path id="69" d="M 770,644.474 C 769.175,644.312 765.125,643.633 761,642.965 C 746.323,640.587 727.494,631.941 721.515,624.835 C 717.120,619.612 711.032,594.116 706.513,562 C 700.548,519.610 700.564,496.968 706.571,477.002 C 708.374,471.010 714.376,458.504 715.901,457.561 C 716.424,457.238 715.306,460.149 713.417,464.031 C 707.420,476.354 704.460,491.668 704.292,511.250 C 704.253,515.834 704.353,516 707.151,516 C 709.576,516 710.149,516.494 710.654,519.020 C 710.986,520.681 712.603,523.171 714.247,524.554 C 716.750,526.660 717.136,527.568 716.624,530.130 C 716.831,534.516 721.866,536.568 722.015,538.008 C 723.123,538.601 725.084,540.754 726.373,542.793 C 728.780,546.600 731.948,548.025 741.500,549.601 C 743.700,549.964 746.057,550.703 752.044,549 C 754.505,549 754.914,549.423 755.187,552.250 C 764.658,558.907 764.658,561.422 767.250,559.747 C 768.733,560.924 781,562.408 781,561.410 C 781,561.031 780.317,560.221 779.482,559.610 C 778.327,558.765 780.061,558.500 786.732,558.500 C 794.603,558.500 796.055,558.193 800.921,555.500 C 810.470,550.215 815.698,540.439 814.796,529.559 C 814.375,524.488 814.496,524.099 816.421,524.292 C 818.009,524.451 818.574,523.851 818.816,521.750 C 819.244,518.031 822.246,518.132 824.969,521.956 C 828.275,526.598 830.613,532.549 835.438,548.594 C 841.914,570.129 843.927,579.277 844.549,590 C 845.087,599.272 845.021,599.655 841.800,605.966 C 837.954,613.503 836,614.772 836,609.733 C 836,601.957 831.426,594.278 824.771,590.883 C 821.567,589.248 819.367,588.877 814.823,589.206 C 807.148,589.761 801.623,593.549 797.793,600.881 C 791.627,612.683 795.714,626.179 807.250,632.112 C 809.312,633.173 811,634.505 811,635.073 C 811,636.865 798.648,641.972 790.579,643.516 C 783.652,644.841 774.136,645.284 770,644.474" stroke="#F89A35" fill="#F89A35" stroke-width="1"/>
  <path id="73" d="M 772.513,561.257 C 770.320,561.033 767.957,560.379 767.263,559.803 C 762.524,563.116 756.692,555.416 755.187,552.250 C 754.914,549.423 754.505,549 746.738,551.243 C 746.057,550.703 743.700,549.964 741.500,549.601 C 731.948,548.025 728.780,546.600 726.373,542.793 C 725.084,540.754 723.123,538.601 722.015,538.008 C 720.647,535.739 716.351,532.340 716.624,530.130 C 717.136,527.568 716.750,526.660 714.247,524.554 C 712.603,523.171 710.986,520.681 710.654,519.020 C 710.148,516.490 709.578,516 707.137,516 C 707.137,516 704.224,516 704.224,516 C 704.224,516 704.579,504.119 704.579,504.119 C 705.492,473.541 715.408,452.196 732.291,444.467 C 748.793,436.912 769.702,442.857 787.972,460.296 C 791.311,463.484 794.484,465.820 795.022,465.487 C 795.560,465.154 796,465.955 796,467.267 C 796,468.579 797.137,470.721 798.528,472.027 C 801.767,475.070 811.594,489.555 816.250,498.150 C 820.788,506.527 830,527.225 830,529.043 C 830,529.796 828.535,527.957 826.744,524.956 C 823.035,518.740 819,516.872 819,521.371 C 819,526.281 814.930,525.761 812.449,520.534 C 810.397,516.211 805.472,511.281 800.843,508.920 C 796.087,506.494 786.217,506.336 781.700,508.614 C 769.430,514.803 766.591,530.759 776.169,539.702 C 786.166,549.036 801,543.856 801,531.032 C 801,527.553 800.395,526.195 797.600,523.400 C 793.378,519.178 789.067,518.843 785.455,522.455 C 781.200,526.710 783.495,532.577 787.866,528.621 C 792.968,524.004 797.903,531.097 793,536 C 787.598,541.402 777,535.474 777,527.050 C 777,511.757 796.830,507.720 805.749,521.197 C 808.067,524.700 808.500,526.415 808.500,532.091 C 808.500,537.982 808.118,539.371 805.458,543.155 C 797.399,554.622 781.356,556.090 770.907,546.316 C 764.018,539.872 761.558,533.627 761.526,522.500 C 761.501,513.939 761.391,513.485 759.252,513.181 C 757.564,512.941 756.731,513.564 755.909,515.681 C 754.225,520.020 755.287,533.694 757.734,539.176 C 760.445,545.248 767.234,552.555 772.960,555.565 C 777.977,558.202 781,560.381 781,561.360 C 781,562.007 779.721,561.992 772.513,561.257" stroke="#FDB94D" fill="#FDB94D" stroke-width="1"/>
  <path id="62" d="M 492,750.902 C 438.659,747.728 370.124,721.918 337.060,692.553 C 334.357,690.152 332.352,687.981 332.606,687.727 C 332.860,687.473 331.568,685.950 329.735,684.341 C 318.157,674.175 301.388,652.570 294.544,639 C 290.394,630.772 283.684,613.983 284.299,613.368 C 284.555,613.112 287.241,616.412 290.268,620.701 C 301.778,637.012 323.006,656.597 343.500,669.815 C 372.727,688.665 417.656,705.152 455.719,710.995 C 539.891,723.916 596.238,690.834 611.969,619.261 C 613.086,614.179 614,608.217 614,606.011 C 614,603.805 614.406,602 614.903,602 C 615.400,602 616.087,606.388 616.429,611.750 C 617.963,635.786 618.106,646.245 617.041,656.500 C 615.778,668.667 613.231,682.219 612.062,682.998 C 611.647,683.274 610.979,684.850 610.578,686.500 C 609.235,692.019 602.353,705.436 597.748,711.510 C 591.030,720.371 577.998,732.344 570.518,736.527 C 550.729,747.593 522.685,752.728 492,750.902" stroke="#F9C178" fill="#F9C178" stroke-width="1"/>
  <path id="69" d="M 388.732,806.464 C 386.679,805.069 385.009,803.382 385.020,802.714 C 385.064,799.973 394.009,780.755 397.376,776.169 C 403.501,767.825 401.795,766.649 393.095,773.218 C 380.742,782.544 362.566,801.332 363.495,803.815 C 364.677,806.975 351.742,800.850 348.949,796.928 C 346.894,794.042 344.630,784 346.035,784 C 346.440,784 348.582,780.953 350.795,777.228 C 353.008,773.503 357.400,767.562 360.555,764.026 C 363.710,760.490 365.770,757.423 365.133,757.211 C 363.609,756.703 355.930,761.146 348.758,766.685 C 345.600,769.124 343.266,770.470 343.570,769.677 C 344.442,767.404 351.580,762.073 358.846,758.266 C 362.506,756.349 365.388,754.379 365.250,753.890 C 364.855,752.483 365.899,752.777 374.689,756.553 C 391.618,763.824 416.240,767.808 435.333,766.367 C 443.937,765.718 444.199,765.761 443.193,767.640 C 441.065,771.616 422.474,787.439 406.719,798.683 C 401.184,802.634 396.260,806.571 395.778,807.433 C 394.560,809.609 393.055,809.402 388.732,806.464" stroke="#F89A35" fill="#F89A35" stroke-width="1"/>
  <path id="69" d="M 616,611.992 C 616,596.875 608.697,555.497 600.778,525.750 C 598.472,517.088 596.114,510 595.540,510 C 594.966,510 589.186,512.250 582.697,515 C 541.961,532.263 495.432,534.109 443.500,520.522 C 371.288,501.629 329.171,468.050 308.010,412.500 C 303.130,399.688 302.512,398.431 301.234,398.703 C 300.707,398.815 300.871,397.030 301.602,394.703 C 302.328,392.391 304.582,384.650 306.611,377.500 C 310.941,362.243 316.629,345.877 321.331,335.151 C 323.176,330.943 325.934,324.456 327.461,320.736 C 328.988,317.016 330.612,313.739 331.071,313.456 C 331.530,313.173 333.986,314.529 336.529,316.470 C 339.072,318.411 341.794,320 342.577,320 C 344.426,320 344.483,319.744 340.970,327.251 C 336.006,337.858 335.116,348.658 338.230,360.500 C 338.808,362.700 339.205,366.300 339.111,368.500 C 338.908,373.258 344.999,386.652 349.910,392.245 C 361.057,404.941 380.603,408.585 396.606,400.950 C 407.360,395.819 416.635,385.423 422.431,372 C 425.738,364.341 426.902,351.143 425.113,341.581 C 423.900,335.101 424.194,333.627 426.020,337.038 C 427.755,340.279 428.468,357.594 427.124,363.859 C 425.145,373.086 420.197,383.463 414.881,389.538 C 414.881,389.538 409.871,395.263 409.871,395.263 C 409.871,395.263 414.064,399.292 414.064,399.292 C 417.809,402.890 418.476,403.184 420.305,402.042 C 423.065,401.569 428.713,404.813 426.630,400.252 C 425.838,398.721 425.035,395.958 424.845,394.113 C 424.328,389.093 427.872,386.836 437.211,386.237 C 446.082,385.668 453.601,387.105 461.646,390.910 C 471.904,395.761 474.983,402.781 469.250,408.248 C 466.664,410.713 455.157,417 453.230,417 C 451.840,417 447.998,421.476 448.024,423.064 C 448.037,423.854 450.399,425.601 453.274,426.947 C 456.149,428.293 458.837,429.568 459.250,429.780 C 459.663,429.992 459.997,429.566 459.993,428.833 C 459.983,426.976 470.018,418 472.104,418 C 473.247,418 473.659,417.413 473.349,416.228 C 473.075,415.180 473.919,413.485 475.414,412.081 C 477.473,410.146 478.216,409.934 479.423,410.936 C 481.267,412.466 485.090,411.397 484.381,409.550 C 483.655,407.658 485.802,406.591 487.500,408 C 490.180,410.224 491,407.983 491,398.441 C 491,393.248 491.353,389 491.785,389 C 492.802,389 494.936,400.408 493.990,400.788 C 492.577,401.355 495.007,410.139 498.684,417.750 C 508.350,437.759 530.836,449.999 552.332,446.953 C 574.657,443.790 591.837,426.987 596.463,403.792 C 598.209,395.035 598.339,389.488 596.949,383 C 594.636,372.203 594.630,372.351 597.435,368.674 C 600.357,364.843 606.631,350.480 607.571,345.471 C 608.451,340.781 606.375,334.539 602.605,330.542 C 600.767,328.594 599.801,327 600.458,327 C 601.115,327 602.703,328.120 603.988,329.488 C 611.211,334.845 617.671,323.639 620,326 C 621.548,328.892 623.540,328.469 626.634,324.592 C 629.274,321.283 629.427,321.230 631.926,322.772 C 633.342,323.645 635.032,324.999 635.683,325.780 C 640.923,330.031 635.076,319.091 640.032,323 C 641.090,324.375 641.979,326.625 642.009,328 C 639.089,336.019 647.652,323.286 645.868,324.055 C 643.834,323.231 640,319.692 640,318.638 C 638.012,318.356 636.925,310.478 639.715,313.750 C 640.556,314.987 642.089,316 643.122,316 C 645.418,316 645.492,315.201 643.406,312.896 C 641.184,310.440 642.421,305.171 645.495,304.002 C 647.953,299.628 659.546,305.035 659.536,301.163 C 658.743,297.552 660.417,296.161 662.877,298.388 C 664.051,299.450 664.958,299.642 665.633,298.967 C 666.308,298.292 665.721,296.073 663.851,292.230 C 658.989,282.239 657.499,276.192 657.511,266.500 C 657.523,256.236 658.967,250.382 662.529,246.148 C 664.497,243.810 666.307,242.978 671.335,242.102 C 679.823,240.624 688.503,240.694 689.782,242.250 C 690.592,243.236 688.454,243.513 679.655,243.562 C 672.626,243.601 667.633,244.094 666.156,244.897 C 660.689,247.868 657.355,264.669 659.962,276.110 C 662.115,285.560 668.614,297.409 675.620,304.661 C 679.129,308.293 682,311.555 682,311.908 C 682,312.261 678.605,315.914 674.454,320.025 C 656.052,338.253 645.879,359.180 641.297,388.235 C 639.080,402.296 638.906,437.868 640.811,488 C 643.316,553.933 638.826,582.176 621.862,607.195 C 619.465,610.729 618,614.049 618,615.945 C 618,617.625 617.550,619 617,619 C 616.428,619 616,615.997 616,611.992M 455,472.582 C 455,471.556 445.765,461.479 443.270,459.782 C 441,458.238 439.355,458 434.150,458.467 C 427.495,459.064 425.163,459.893 423.079,462.404 C 422.026,463.673 422.202,463.995 424.162,464.398 C 440.933,467.845 448.079,469.618 451,471.057 C 452.925,472.006 454.612,472.831 454.750,472.891 C 454.888,472.951 455,472.812 455,472.582M 480.975,464.357 C 478.091,450.407 466.578,435.866 453.171,429.240 C 445.947,425.670 445.147,425.500 435.552,425.500 C 426.808,425.500 424.784,425.838 420,428.097 C 416.975,429.525 412.185,432.787 409.356,435.345 C 404.007,440.181 397.273,449.607 398.378,450.712 C 398.728,451.062 402.948,449.285 407.757,446.764 C 427.463,436.434 440.135,436.399 455.679,446.631 C 461.910,450.733 474.044,462.521 478.045,468.361 C 481.298,473.109 482.457,471.525 480.975,464.357M 458.104,412.876 C 465.110,410.362 471,405.656 471,402.573 C 471,394.416 448.013,385.115 434.838,387.941 C 431.977,388.555 429.043,389.549 428.318,390.151 C 424.491,393.327 428.967,403.280 437.664,410.935 C 444.011,416.522 447.122,416.817 458.104,412.876" stroke="#F89A35" fill="#F89A35" stroke-width="1"/>
  <path id="73" d="M 331.526,779.050 C 327.916,772.068 331.320,764.134 343.526,751.087 C 350.430,743.708 352.088,742.401 353.062,743.575 C 353.710,744.356 356.775,746.687 359.871,748.755 C 362.967,750.823 365.500,753.032 365.500,753.665 C 365.500,754.298 362.442,756.410 358.704,758.358 C 354.966,760.306 350.466,763.090 348.704,764.544 C 345.636,767.075 344.218,768.762 337.500,777.861 C 335.850,780.096 334.174,781.941 333.776,781.962 C 333.378,781.983 332.365,780.673 331.526,779.050" stroke="#FDB94D" fill="#FDB94D" stroke-width="1"/>
  <path id="70" d="M 604.708,879.337 C 604.149,878.432 611.093,872.483 622.500,864.093 C 630.712,858.053 651.097,840.657 659,832.944 C 666.602,825.526 666.059,824.921 654.262,827.661 C 648.240,829.060 642.352,829.459 628,829.442 C 611.242,829.422 608.464,829.163 598.500,826.688 C 582.008,822.592 575.211,820.154 567.636,815.614 C 563.861,813.351 559.863,810.978 558.751,810.340 C 556.475,809.034 554.929,806.923 555.534,805.944 C 555.755,805.586 560.309,806.817 565.654,808.679 C 579.451,813.486 591.145,815.313 604.500,814.748 C 617.577,814.195 627.533,811.147 626.698,807.953 C 626.287,806.381 626.801,806.502 630.260,808.791 C 638.217,814.057 649.814,811.701 654.417,803.883 C 658.234,797.400 655.967,787.481 650.073,784.872 C 643.956,784.800 652.292,777.498 650.531,777.883 C 650.531,777.883 654,780.221 654,780.221 C 655.908,781.507 658.506,784.346 659.772,786.530 C 661.744,789.931 662.033,791.647 661.787,798.500 C 661.522,805.891 661.650,806.500 663.470,806.500 C 666.245,806.500 667.968,802.460 667.985,795.910 C 668.012,785.855 660.229,773.796 652.748,772.300 C 650.340,771.818 650.082,771.534 651.388,770.803 C 652.583,770.134 653,768.394 653,764.073 C 653,757.430 653.162,757.237 661.500,753.992 C 664.800,752.708 669.525,750.657 672,749.435 C 674.475,748.213 679.650,745.722 683.500,743.899 C 687.350,742.076 693.898,738.480 698.052,735.909 C 702.206,733.338 707.943,730.049 710.802,728.600 C 710.802,728.600 716,725.966 716,725.966 C 716,725.966 716,728.758 716,728.758 C 716,735.738 707.100,780.669 702.091,798.980 C 700.508,804.766 698.903,812.135 698.522,815.355 C 697.153,826.942 695.582,830.208 687.898,837.457 C 671.049,853.352 643.723,870.804 626,876.988 C 619.130,879.385 605.656,880.871 604.708,879.337" stroke="#EB6821" fill="#EB6821" stroke-width="1"/>
  <path id="83" d="M 640.250,794.250 C 637.279,793.260 639.712,788 643.141,788 C 645.594,788 646.205,789.455 644.928,792.258 C 643.853,794.618 642.756,795.085 640.250,794.250" stroke="#F79736" fill="#F79736" stroke-width="1"/>
  <path id="70" d="M 640.318,801.750 C 641.649,799.963 643.002,797.375 643.325,796 C 643.648,794.625 644.608,792.600 645.457,791.500 C 646.983,789.523 647.017,789.522 648.500,791.441 C 652.604,796.753 648.227,805 641.303,805 C 641.303,805 637.898,805 637.898,805 C 637.898,805 640.318,801.750 640.318,801.750" stroke="#EB6821" fill="#EB6821" stroke-width="1"/>
  <path id="69" d="M 599.530,878.406 C 597.346,877.607 594.346,875.789 592.862,874.368 C 590.265,871.880 590.216,871.640 591.537,867.895 C 592.292,865.756 595.233,859.482 598.073,853.954 C 600.913,848.426 603.038,843.705 602.797,843.464 C 602.556,843.223 599.370,845.491 595.716,848.505 C 588.344,854.586 576.767,867.646 574.790,872.113 C 573.326,875.421 572.288,875.571 565.293,873.494 C 560.003,871.923 553.173,865.760 552.829,862.247 C 553.339,859.501 550.714,854.123 551.886,855 C 552.438,855 554.492,851.952 556.449,848.228 C 558.406,844.504 562.085,839.083 564.623,836.181 C 567.161,833.279 568.973,830.640 568.649,830.316 C 566.605,828.272 542,848.806 542,852.556 C 542,854.141 541.717,854.083 539.552,852.049 C 532.605,845.523 537.113,833.933 552.731,818.170 C 555.821,815.051 558.251,811.938 558.131,811.250 C 557.872,809.768 559.618,809.572 560.491,810.985 C 561.688,812.921 574.617,819.765 581,821.842 C 584.575,823.005 592.450,825.185 598.500,826.688 C 608.464,829.163 611.242,829.422 628,829.442 C 642.352,829.459 648.240,829.060 654.262,827.661 C 666.059,824.921 666.602,825.526 659,832.944 C 651.199,840.557 630.840,857.915 622.500,864.063 C 612.770,871.236 604.481,878.293 604.750,879.177 C 605.079,880.261 604.274,880.143 599.530,878.406" stroke="#F89A35" fill="#F89A35" stroke-width="1"/>
  <path id="28" d="M 469.568,403.584 C 470.194,401.092 470.057,401 465.705,401 C 459.119,401 443.483,397.630 436.078,394.615 C 432.546,393.177 429.003,392 428.205,392 C 424.741,392 429.450,389.048 434.629,387.973 C 448.156,385.165 471,394.344 471,402.587 C 471,403.849 470.532,405.171 469.960,405.525 C 469.286,405.942 469.147,405.259 469.568,403.584" stroke="#C0511F" fill="#C0511F" stroke-width="1"/>
  <path id="28" d="M 600.465,360.380 C 599.690,359.155 598.947,359.067 596.685,359.928 C 592.342,361.582 588.461,361.219 582.174,358.573 C 573.097,354.753 514.821,325.950 511.622,323.703 C 510.039,322.591 507.640,319.273 506.293,316.330 C 504.946,313.387 503.401,311.252 502.860,311.586 C 501.255,312.578 508.610,298.652 510.676,296.788 C 511.719,295.846 514.229,294.384 516.254,293.538 C 524.072,290.271 525.294,290.696 564.922,310.474 C 599.233,327.598 602.137,329.250 604.668,333.074 C 608.422,338.747 608.408,345.207 604.623,354.500 C 603.055,358.350 601.695,361.591 601.601,361.702 C 601.507,361.813 600.996,361.218 600.465,360.380" stroke="#C0511F" fill="#C0511F" stroke-width="1"/>
  <path id="47" d="M 686.300,689.198 C 675.754,685.432 667.529,677.674 663.913,668.079 C 660.949,660.214 661.507,646.863 665.129,638.998 C 668.654,631.344 675.930,624.409 684.916,620.142 C 691.466,617.031 693.297,616.610 700.422,616.572 C 706.819,616.538 709.451,616.994 713.070,618.766 C 717.144,620.761 717.986,621.791 720.823,628.252 C 722.573,632.238 724.003,635.892 724.002,636.370 C 724.001,636.848 722.019,641.348 719.597,646.370 C 711.230,663.719 708.906,676.924 713.354,681.839 C 716.033,684.799 715.310,686.656 710.750,688.531 C 704.375,691.152 692.668,691.472 686.300,689.198" stroke="#C14919" fill="#C14919" stroke-width="1"/>
  <path id="84" d="M 398.110,808.367 C 398.855,807.469 402.847,804.239 406.982,801.190 C 416.746,793.989 436.195,777.972 442.250,772.146 C 445.381,769.133 446.820,767.007 446.471,765.907 C 446.019,764.482 446.564,764.308 450.221,764.709 C 454.844,765.217 464.537,762.269 464.064,760.500 C 463.917,759.950 457.206,757.440 449.149,754.921 C 432.393,749.683 414.680,742.834 403.321,737.202 C 391.460,731.321 374.310,721.376 369.653,717.677 C 367.369,715.863 364.263,713.608 362.750,712.666 C 361.237,711.724 360,710.488 360,709.920 C 360,709.351 361.913,710.059 364.250,711.493 C 372.425,716.507 388.609,724.330 401.638,729.566 C 466.086,755.465 532.545,758.236 570.231,736.594 C 573.679,734.614 578.525,731.830 581,730.408 C 587.589,726.622 594.392,719.633 600.877,709.983 C 606.472,701.658 611.813,690.178 612.473,685.061 C 612.655,683.652 613.495,679.125 614.341,675 C 616.949,662.281 618.076,648.027 617.874,630.328 C 617.874,630.328 617.680,613.361 617.680,613.361 C 617.680,613.361 621.702,607.430 621.702,607.430 C 638.842,582.153 643.324,554.143 640.811,488 C 638.906,437.868 639.080,402.296 641.297,388.235 C 645.883,359.152 655.115,339.995 673.793,320.804 C 679.310,315.135 682.055,311.586 681.680,310.609 C 681.364,309.784 683.444,310.893 686.303,313.072 C 691.372,316.936 701.785,321 706.619,321 C 707.944,321 710.259,319.741 711.764,318.202 C 713.269,316.663 713.713,316.354 712.750,317.516 C 708.768,322.323 711.924,322.177 722.487,317.064 C 731.395,312.752 742.809,303.045 748.221,295.179 C 748.221,295.179 751.351,290.629 751.351,290.629 C 751.351,290.629 759.103,298.797 759.103,298.797 C 766.134,306.206 768.951,310.382 767.736,311.597 C 767.491,311.842 764.085,311.273 760.167,310.333 C 756.249,309.393 752.780,308.886 752.458,309.208 C 752.136,309.530 753.643,313.328 755.806,317.647 C 757.969,321.966 760.778,328.425 762.049,332 C 763.443,335.922 767.218,342.465 771.569,348.500 C 785.297,367.540 795.967,385.842 795.990,390.393 C 795.999,392.139 795.378,392.243 788,391.737 C 778.871,391.111 779.060,390.881 781.424,399.762 C 782.463,403.667 784.751,407.406 790.292,414.262 C 803.114,430.126 811.366,443.419 810.811,447.318 C 810.550,449.150 809.938,449.456 807,449.229 C 805.075,449.080 801.574,448.455 799.221,447.841 C 796.868,447.227 794.674,446.992 794.345,447.321 C 794.017,447.650 794.163,451.792 794.671,456.526 C 795.178,461.260 795.244,465.349 794.818,465.612 C 794.392,465.875 791.311,463.484 787.972,460.296 C 777.065,449.885 766.511,444.145 754,441.818 C 733.477,438.001 713.946,452.490 706.571,477.002 C 702.294,491.218 700.938,513.062 703.025,534.144 C 705.762,561.794 712.129,598.646 716.987,614.958 C 719.550,623.563 722.036,626.584 731.023,632.014 C 748.106,642.336 772.625,647.118 790.417,643.599 C 800.683,641.568 811.462,636.647 810.595,634.387 C 810.059,632.991 810.580,632.860 814.403,633.433 C 823.693,634.826 835,626.102 835,617.540 C 835,616.132 835.957,614.197 837.127,613.240 C 838.297,612.283 840.526,608.800 842.081,605.500 C 842.081,605.500 844.908,599.500 844.908,599.500 C 844.908,599.500 844.941,607 844.941,607 C 844.975,614.885 842.131,630.870 839.846,635.633 C 835.424,644.849 803.170,651.819 773.223,650.029 C 756.637,649.038 745.509,646.389 734.145,640.728 C 725.966,636.654 725.759,636.608 724.292,638.533 C 722.841,640.437 722.815,640.427 723.484,638.187 C 723.958,636.600 723.150,633.540 720.908,628.439 C 717.982,621.781 717.163,620.770 713.070,618.766 C 709.451,616.994 706.819,616.538 700.422,616.572 C 693.297,616.610 691.466,617.031 684.916,620.142 C 675.930,624.409 668.654,631.344 665.129,638.998 C 661.421,647.049 660.944,660.200 664.059,668.469 C 666.886,675.974 674.657,684.016 682.732,687.792 C 687.573,690.056 689.866,690.490 697,690.495 C 706.154,690.501 715,688.013 715,685.433 C 715,684.338 715.844,684.472 718.871,686.050 C 725.300,689.401 729.122,687.921 747.075,675.128 C 748.936,673.802 748.999,674.068 748.994,683.128 C 748.986,697.027 748.245,698.794 738.994,706.945 C 734.637,710.784 727.906,716.228 724.036,719.043 C 720.166,721.858 717,724.875 717,725.747 C 717,726.620 716.720,727.054 716.378,726.712 C 715.605,725.939 707.970,729.770 698.052,735.909 C 693.898,738.480 687.350,742.076 683.500,743.899 C 679.650,745.722 674.475,748.213 672,749.435 C 669.525,750.657 664.800,752.708 661.500,753.992 C 653.164,757.236 653,757.430 653,764.063 C 653,767.263 652.550,770.160 652,770.500 C 651.372,770.888 651,768.697 651,764.618 C 651,761.043 650.539,757.833 649.976,757.485 C 649.413,757.137 646.150,757.766 642.726,758.882 C 639.302,759.998 632.675,761.845 628,762.986 C 623.325,764.127 618.600,765.501 617.500,766.039 C 614.743,767.387 598.181,769.757 582,771.120 C 556.667,773.253 516.221,771.160 494.401,766.586 C 494.401,766.586 487.760,765.194 487.760,765.194 C 487.760,765.194 480.130,771.634 480.130,771.634 C 475.933,775.176 467.550,781.378 461.500,785.414 C 435.531,802.740 418.790,809.975 404.628,809.991 C 397.459,809.999 396.876,809.854 398.110,808.367M 672.255,737.632 C 679.682,733.953 686.549,727.287 687.891,722.453 C 690.451,713.233 688.586,703.464 683.157,697.658 C 670.411,684.026 645.778,690.421 644.336,707.736 C 643.775,714.468 645.512,719.327 649.897,723.288 C 654.875,727.785 658.652,728.608 664.858,726.547 C 671.220,724.434 674.131,721.210 675.042,715.270 C 675.936,709.443 674.312,705.729 669.862,703.428 C 664.427,700.617 659.257,702.635 656.057,708.817 C 655.076,710.711 655.156,711.589 656.492,713.628 C 658.725,717.036 662.381,716.529 662.816,712.750 C 663.150,709.844 664.802,709.202 666.800,711.200 C 668.805,713.205 668.149,716.737 665.365,718.927 C 658.193,724.568 649.432,717.537 651.955,708.166 C 654.327,699.357 664.589,695.393 672.912,700.071 C 678.823,703.393 682.475,710.933 681.111,717.002 C 680.578,719.376 679.210,722.578 678.071,724.118 C 676.932,725.658 676,727.368 676,727.917 C 676,730.177 666.889,734.239 660.708,734.735 C 646.798,735.852 635.936,725.495 635.867,711.049 C 635.834,704.147 639.310,695.501 644.909,688.557 C 648.018,684.701 648.653,681.036 646.344,680.276 C 644.051,679.522 637.936,686.350 634.280,693.747 C 626.713,709.058 629.317,726.038 640.545,734.602 C 649.514,741.443 662.127,742.648 672.255,737.632M 676.230,439.034 C 679.630,436.359 681.364,431.750 680.735,427.059 C 679.338,416.643 668.375,411.898 661.527,418.746 C 657.081,423.192 656.491,429.445 659.915,435.842 C 662.577,440.816 671.697,442.600 676.230,439.034M 721.048,417.074 C 728.651,414.185 732.525,410.711 735.987,403.678 C 742.529,390.390 739.006,372.404 727.440,360.039 C 722.434,354.688 715.698,350.705 708.665,348.936 C 689.509,344.119 672.698,365.659 678.361,387.764 C 680.503,396.126 683.282,401.318 688.736,407.149 C 698.670,417.769 710.032,421.260 721.048,417.074" stroke="#EB7122" fill="#EB7122" stroke-width="1"/>
  <path id="28" d="M 663.775,439.441 C 656.815,435.664 655.619,424.654 661.527,418.746 C 668.375,411.898 679.338,416.643 680.735,427.059 C 682.121,437.391 672.687,444.278 663.775,439.441" stroke="#C0511F" fill="#C0511F" stroke-width="1"/>
  <path id="28" d="M 697.500,318.963 C 694.200,317.905 689.248,315.321 686.496,313.221 C 683.744,311.121 680.747,309.117 679.838,308.768 C 676.860,307.625 668.132,296.121 664.639,288.734 C 660.002,278.927 658.623,272.325 659.263,262.988 C 659.864,254.223 662.669,246.783 666.056,244.970 C 667.290,244.310 672.845,243.538 678.400,243.257 C 687.522,242.795 688.984,242.973 693.500,245.091 C 700.633,248.436 711.759,259.934 715.737,268.072 C 720.421,277.653 722.358,286.158 721.686,294.192 C 721.004,302.341 717.390,311.653 712.866,316.915 C 708.902,321.526 706.492,321.847 697.500,318.963" stroke="#C0511F" fill="#C0511F" stroke-width="1"/>
  <path id="73" d="M 585.365,811.461 C 575.772,809.964 554.621,803.475 550.274,800.696 C 547.527,798.940 537,777.051 537,773.097 C 537,772.651 548.362,772.014 562.250,771.682 C 576.416,771.343 592.109,770.400 598,769.532 C 603.775,768.681 613,767.536 618.500,766.987 C 624,766.438 629.963,765.714 633.093,768.686 C 628.607,769.859 621.003,782.829 621.001,789.309 C 621.001,791.061 620.595,791.867 619.923,791.452 C 619.176,790.990 619.060,792.222 619.548,795.474 C 620.398,801.142 618.734,805 615.439,805 C 613.919,805 613.024,805.768 612.607,807.430 C 611.441,812.075 609.474,813.011 601.179,812.865 C 596.956,812.791 589.839,812.159 585.365,811.461" stroke="#FDB94D" fill="#FDB94D" stroke-width="1"/>
  <path id="60" d="M 412.636,765.987 C 392.126,764.049 371.316,757.045 358.198,747.663 C 354.054,744.699 353.967,744.530 355.831,743.043 C 360.364,739.427 361.720,732.197 359.409,723.959 C 358.002,718.944 356.831,717.132 352.357,713.043 C 347.019,708.165 343.300,706.731 333.535,705.787 C 330.855,705.528 330.398,704.932 328.774,699.580 C 327.786,696.324 326.685,691.173 326.328,688.133 C 326.328,688.133 325.678,682.605 325.678,682.605 C 325.678,682.605 335.268,690.954 335.268,690.954 C 340.542,695.546 347.931,701.372 351.687,703.901 C 355.443,706.430 359.637,709.544 361.008,710.820 C 377.030,725.733 416.149,745.157 451.183,755.593 C 457.957,757.611 463.917,759.643 464.427,760.108 C 465.987,761.532 457.879,764.408 451.918,764.545 C 448.848,764.616 445.923,764.925 445.418,765.231 C 443.648,766.304 421.414,766.816 412.636,765.987" stroke="#D9551B" fill="#D9551B" stroke-width="1"/>
  <path id="73" d="M 219.815,364.249 C 214.500,363.727 207.894,357.667 207.668,353.107 C 207.452,348.746 209.365,348.054 210.964,351.914 C 214.836,361.261 229.706,359.415 231.594,349.353 C 232.815,342.843 227.641,340.805 224.822,346.686 C 224.013,348.374 222.679,349.500 221.487,349.500 C 218.754,349.500 218.099,342.652 220.571,339.921 C 226.640,333.215 238.200,339.589 238.200,349.640 C 238.200,359.048 230.352,365.284 219.815,364.249" stroke="#FDB94D" fill="#FDB94D" stroke-width="1"/>
  <path id="68" d="M 444.323,415.313 C 438.771,414.210 427,400.291 427,394.829 C 427,391.319 427.928,391.297 436.078,394.615 C 443.483,397.630 459.119,401 465.705,401 C 470.118,401 470.203,401.060 469.567,403.750 C 468.708,407.383 464.820,410.469 458.036,412.902 C 451.672,415.184 447.430,415.930 444.323,415.313" stroke="#A03A17" fill="#A03A17" stroke-width="1"/>
  <path id="22" d="M 529,432.554 C 513.891,428.301 501.277,417.122 495.923,403.240 C 493.165,396.089 492.227,382.074 493.975,374.114 C 495.710,366.209 500.614,357.443 506.721,351.329 C 513.710,344.331 514.697,343.889 519.250,345.712 C 521.312,346.538 523,347.510 523,347.872 C 523,348.234 520.805,349.310 518.123,350.263 C 511.729,352.534 505.548,358.662 501.923,366.324 C 499.535,371.371 499.002,373.818 499.001,379.712 C 499,389.831 501.757,396.713 508.522,403.478 C 515.863,410.819 522.655,413.346 533.500,412.768 C 543.106,412.256 549.677,409.313 555.426,402.950 C 561.924,395.757 563.481,391.085 563.488,378.750 C 563.492,372.837 563.771,368 564.107,368 C 564.443,368 568.128,369.575 572.294,371.500 C 576.950,373.651 581.407,375 583.862,375 C 583.862,375 587.856,375 587.856,375 C 587.856,375 588.571,380.723 588.571,380.723 C 590.820,398.720 580.140,419.619 564.285,428.248 C 554.318,433.673 539.428,435.490 529,432.554" stroke="#FEFEFE" fill="#FEFEFE" stroke-width="1"/>
  <path id="68" d="M 514.655,396.867 C 512.565,395.144 509.863,391.656 508.651,389.117 C 506.614,384.848 506.166,384.500 502.723,384.500 C 502.723,384.500 498.999,384.500 498.999,384.500 C 498.999,384.500 499,378.500 499,378.500 C 499.003,366.902 507.785,353.935 518.123,350.263 C 520.805,349.310 523,348.268 523,347.946 C 523,347.624 519.532,345.838 515.294,343.975 C 501.363,337.853 496.228,329.606 499.449,318.527 C 501.829,310.340 503.327,309.851 506.278,316.296 C 507.634,319.258 510.039,322.591 511.622,323.703 C 514.870,325.985 573.162,354.781 582.424,358.679 C 588.336,361.167 593.531,361.439 598.242,359.507 C 600.914,358.411 601.610,361.713 599.523,365.588 C 596.958,370.351 590.919,374.205 585.156,374.759 C 581.156,375.143 579.034,374.615 572.533,371.611 C 568.235,369.625 564.443,368 564.107,368 C 563.771,368 563.496,372.934 563.497,378.964 C 563.499,387.911 563.191,390.237 561.816,391.612 C 560.375,393.054 559.698,393.117 553.580,388.232 C 555.376,383.199 555.332,375.730 553.479,371.295 C 549.638,362.101 540.448,354.990 532.434,355.010 C 528.293,355.020 517.520,359.414 518.348,360.754 C 518.614,361.185 517.134,361.375 515.060,361.177 C 511.915,360.877 510.932,361.271 509.144,363.544 C 507.965,365.043 507,367.088 507,368.088 C 507,370.644 509.118,375 510.361,375 C 510.991,375 510.927,375.473 510.200,376.200 C 508.534,377.866 508.698,385.343 510.495,389.643 C 511.317,391.611 513.656,394.747 515.691,396.611 C 520.338,400.867 519.699,401.025 514.655,396.867" stroke="#A03A17" fill="#A03A17" stroke-width="1"/>
  <path id="3" d="M 625.641,805.136 C 622.197,801.526 621,797.896 621,791.074 C 621,786.466 621.538,784.486 623.628,781.406 C 628.410,774.360 634.999,770.725 643.210,770.604 C 649.623,770.510 651.190,771.462 649.948,774.696 C 649.231,776.562 648.570,776.804 645.543,776.313 C 640.655,775.520 633.817,778.306 630.012,782.639 C 627.144,785.905 626.944,786.633 627.109,793.167 C 627.254,798.924 627.710,800.690 629.643,802.987 C 632.494,806.376 632.520,806.630 630.078,807.269 C 628.845,807.591 627.254,806.827 625.641,805.136" stroke="#F5768E" fill="#F5768E" stroke-width="1"/>
  <path id="24" d="M 716.464,269.626 C 712.218,260.919 705.313,252.837 697.554,247.493 C 694.477,245.374 692.307,243.351 692.730,242.997 C 693.154,242.643 696.425,241.487 700,240.427 C 708.696,237.849 717.465,229.470 720.855,220.500 C 723.567,213.324 726.242,210.233 730.420,209.449 C 734.827,208.622 738.347,210.269 744.392,215.986 C 748.995,220.339 749.692,221.510 749.834,225.122 C 750.302,237.072 743.641,255.481 735.452,264.869 C 731.434,269.475 722.432,277 720.940,277 C 720.456,277 718.442,273.682 716.464,269.626" stroke="#FEE8AE" fill="#FEE8AE" stroke-width="1"/>
  <path id="3" d="M 549.059,650.408 C 543.093,648.242 540.385,646.486 534.666,641.074 C 522.144,629.224 519.112,610.212 527.027,593.175 C 532.436,581.532 546.712,569.865 555.868,569.604 C 558.856,569.519 559.554,569.879 559.805,571.638 C 560.060,573.428 558.732,574.442 551.646,577.872 C 541.870,582.604 537.374,587.126 532.626,597 C 529.835,602.805 529.501,604.463 529.509,612.500 C 529.516,620.291 529.888,622.258 532.280,627.143 C 538.816,640.490 553.732,648.183 566.932,645.016 C 581.475,641.527 591.290,626.714 588.039,613.161 C 586.204,605.511 581.817,599.586 575.751,596.563 C 564.734,591.073 553.907,594.676 548.896,605.500 C 545.618,612.581 546.958,619.931 552.452,625 C 555.945,628.223 564.600,628.577 567.857,625.629 C 571.034,622.754 572.447,617.495 570.989,613.974 C 568.880,608.882 563,609.218 563,614.431 C 563,619.911 557.663,621.491 556.383,616.390 C 554.883,610.413 559.861,604 566.002,604 C 572.682,604 578,610.205 578,618 C 578,625.422 572.677,631.933 564.897,634.028 C 559.343,635.523 551.563,633.210 547.286,628.791 C 537.361,618.536 539.338,600.287 551.234,592.336 C 566.362,582.226 585.734,589.016 593.072,607 C 595.375,612.643 594.924,625.510 592.216,631.420 C 588.769,638.944 583.819,644.284 576.834,648.015 C 571.310,650.965 569.413,651.437 562,651.709 C 556.015,651.928 552.186,651.543 549.059,650.408" stroke="#F5768E" fill="#F5768E" stroke-width="1"/>
  <path id="70" d="M 264,474.605 C 244.844,466.274 231.513,457.884 219.085,446.338 C 211.684,439.463 209.447,435.903 213.125,436.857 C 223.944,439.663 237.501,438.442 247,433.806 C 260.258,427.335 268.430,417.191 282.931,389.206 C 293.906,368.027 306.829,346.746 312.903,339.847 C 315.157,337.288 317,334.750 317,334.209 C 317,333.668 313.581,328.112 309.402,321.863 C 302.204,311.098 301.835,310.275 302.387,306.220 C 303.226,300.053 307.622,291.405 311.219,288.844 C 313.214,287.423 316.306,286.481 319.908,286.197 C 322.983,285.954 326.062,285.305 326.750,284.755 C 327.728,283.972 328,285.432 328,291.474 C 328,301.085 330.241,309.029 334.304,313.819 C 336.873,316.848 336.958,317.083 334.787,315.145 C 333.336,313.850 331.718,313.056 331.193,313.381 C 330.667,313.706 328.988,317.016 327.461,320.736 C 325.934,324.456 323.176,330.943 321.331,335.151 C 315.361,348.771 307.223,373.503 301.942,394.076 C 301.437,396.043 296.406,404.015 290.762,411.791 C 272.045,437.579 265.224,450.060 264.202,460.394 C 264.202,460.394 263.718,465.288 263.718,465.288 C 263.718,465.288 266.609,464.577 266.609,464.577 C 268.199,464.186 272.650,461.899 276.500,459.494 C 282.647,455.654 283.537,455.348 283.809,456.983 C 284.661,462.110 276.560,478.069 273.173,477.934 C 272.253,477.897 268.125,476.399 264,474.605" stroke="#EB6821" fill="#EB6821" stroke-width="1"/>
  <path id="26" d="M 478.045,468.361 C 474.044,462.521 461.910,450.733 455.679,446.631 C 440.135,436.399 427.463,436.434 407.757,446.764 C 402.948,449.285 398.728,451.062 398.378,450.712 C 397.273,449.607 404.007,440.181 409.356,435.345 C 412.185,432.787 416.975,429.525 420,428.097 C 424.784,425.838 426.808,425.500 435.552,425.500 C 445.147,425.500 445.947,425.670 453.171,429.240 C 466.578,435.866 478.091,450.407 480.975,464.357 C 482.457,471.525 481.298,473.109 478.045,468.361" stroke="#75290D" fill="#75290D" stroke-width="1"/>
  <path id="26" d="M 526.275,403.029 C 522.291,402.082 519.094,400.027 514.573,395.506 C 510.582,391.515 508.696,386.275 509.171,380.500 C 509.171,380.500 509.500,376.500 509.500,376.500 C 509.500,376.500 513.713,376.832 513.713,376.832 C 521.928,377.480 525.813,369.496 520.408,363.073 C 520.408,363.073 517.816,359.993 517.816,359.993 C 517.816,359.993 523.158,357.506 523.158,357.506 C 533.024,352.913 541.945,355.194 548.994,364.112 C 553.930,370.356 555.381,374.866 554.737,381.968 C 553.787,392.444 548,399.690 538.239,402.628 C 533.271,404.123 531.177,404.194 526.275,403.029" stroke="#75290D" fill="#75290D" stroke-width="1"/>
  <path id="28" d="M 813,633.334 C 807.288,632.434 805.864,631.820 802.361,628.744 C 794.572,621.905 792.718,610.596 797.793,600.881 C 801.623,593.549 807.148,589.761 814.823,589.206 C 824.483,588.507 831.899,593.720 835,603.390 C 836.460,607.944 835.647,618.863 833.548,622.879 C 831.576,626.653 827.073,630.654 822.782,632.447 C 819.101,633.985 817.852,634.098 813,633.334" stroke="#C0511F" fill="#C0511F" stroke-width="1"/>
  <path id="3" d="M 325.200,613.800 C 323.321,611.921 323.778,609.557 326.519,606.982 C 340.357,593.982 344.105,564.825 334.262,546.741 C 323.205,526.426 296.377,525.775 287.060,545.596 C 284.550,550.937 284.310,560.619 286.528,567.128 C 292.499,584.651 313.268,588.840 320.750,574.030 C 321.987,571.580 322.990,567.984 322.978,566.038 C 322.927,557.771 315.909,549 309.346,549 C 301.857,549 296.973,558.973 302,564 C 304.614,566.614 305.610,566.525 308.491,563.416 C 311.605,560.056 314.406,560.556 314.797,564.540 C 315.405,570.732 307.353,574.652 301.077,571.218 C 292.517,566.535 291.495,553.320 299.155,546.373 C 310.726,535.879 329.005,548.220 328.968,566.500 C 328.953,574.002 326.623,579.318 321.213,584.196 C 311.455,592.994 296.115,591.223 287.048,580.251 C 268.385,557.667 281.509,524.473 308.997,524.735 C 316.871,524.810 321.873,526.426 328.160,530.928 C 334.366,535.372 339.984,542.898 343.161,551.023 C 346.519,559.610 346.917,576.964 344.005,587.757 C 341.650,596.486 336.678,605.678 331.169,611.487 C 327.504,615.351 326.962,615.562 325.200,613.800" stroke="#F5768E" fill="#F5768E" stroke-width="1"/>
  <path id="84" d="M 519.173,410.908 C 511.787,407.989 503.851,399.890 501.056,392.420 C 498.436,385.418 498.874,383.765 503.235,384.186 C 505.995,384.453 506.810,385.190 508.655,389.088 C 509.850,391.612 512.276,394.896 514.047,396.386 C 525.777,406.256 538.837,406.067 549.024,395.880 C 553.862,391.042 554.242,390.858 556.992,391.997 C 558.580,392.655 560.357,392.897 560.940,392.537 C 563.802,390.768 559.964,397.926 555.257,403.137 C 549.472,409.541 543.053,412.294 533,412.684 C 526.167,412.949 523.455,412.600 519.173,410.908" stroke="#EB7122" fill="#EB7122" stroke-width="1"/>
  <path id="90" d="M 351.590,742.099 C 350.392,740.775 350.212,739.987 350.997,739.502 C 352.715,738.440 354.192,733.920 354.158,729.823 C 354.125,725.807 352.354,721.950 348.668,717.863 C 345.287,714.115 342.766,713 337.664,713 C 333.552,713 333.108,712.750 332.098,709.851 C 331.494,708.119 331,706.544 331,706.351 C 331,705.630 337.074,706.037 341.964,707.086 C 349.686,708.742 357.170,715.980 359.409,723.959 C 361.719,732.192 359.779,741.720 355.455,743.379 C 353.327,744.195 353.555,744.270 351.590,742.099" stroke="#E85A6B" fill="#E85A6B" stroke-width="1"/>
  <path id="62" d="M 711,320.122 C 711,319.639 711.710,318.655 712.578,317.935 C 714.914,315.996 718.810,307.827 720.508,301.307 C 722.356,294.210 722.402,287.988 720.656,281.255 C 719.917,278.406 719.719,276.326 720.215,276.633 C 720.711,276.940 722.920,275.941 725.124,274.414 C 737.100,266.115 747.141,249.088 749.219,233.556 C 749.849,228.850 750.649,225 750.997,225 C 751.345,225 752.443,226.688 753.437,228.750 C 761.900,246.308 762.015,266.151 753.756,284 C 752.102,287.575 750.257,291.625 749.655,293 C 749.054,294.375 744.682,299.390 739.941,304.144 C 732.970,311.134 729.697,313.574 722.837,316.894 C 714.529,320.916 711,321.877 711,320.122" stroke="#F9C178" fill="#F9C178" stroke-width="1"/>
  <path id="28" d="M 339.445,303.921 C 337.765,303.438 335.324,301.909 334.021,300.522 C 331.250,297.572 329.331,297.294 328.689,299.750 C 328.437,300.712 328.180,296.603 328.116,290.618 C 328.016,281.266 328.288,279.269 330.050,276.418 C 333.929,270.141 340.531,267.804 358,266.523 C 360.475,266.342 373.064,264.984 385.975,263.506 C 411.723,260.558 414.124,260.709 419.991,265.646 C 424.069,269.078 425.649,272.343 426.491,279.083 C 427.185,284.634 427.165,284.690 422.844,289.447 C 420.455,292.078 417.375,294.673 416,295.216 C 412.125,296.745 386.893,300.097 357.500,302.986 C 350.900,303.635 344.825,304.308 344,304.482 C 343.175,304.656 341.125,304.404 339.445,303.921" stroke="#C0511F" fill="#C0511F" stroke-width="1"/>
  <path id="84" d="M 366.287,403.065 C 359.957,400.736 353.192,396.200 349.458,391.781 C 344.944,386.439 338.805,372.743 339.186,368.861 C 339.186,368.861 339.516,365.500 339.516,365.500 C 339.516,365.500 342.341,370.881 342.341,370.881 C 351.326,387.994 372.050,396.865 390.591,391.536 C 414.406,384.691 427.644,357.848 419.638,332.637 C 418.339,328.545 415.864,323.106 414.138,320.549 C 410.556,315.241 410.440,314.709 415.399,316.921 C 416.756,318.453 419.924,323.768 422.675,329.126 C 424.510,332.700 425.500,341.429 425.500,354.020 C 425.500,363.393 425.181,365.300 422.573,371.520 C 416.814,385.256 407.568,395.721 396.542,400.981 C 390.565,403.833 388.310,404.349 380.542,404.642 C 373.476,404.909 370.361,404.564 366.287,403.065" stroke="#EB7122" fill="#EB7122" stroke-width="1"/>
  <path id="67" d="M 515,212.559 C 515,210.834 515.545,210 521.983,208.095 C 521.973,208.868 520.961,210.431 519.733,211.569 C 515.849,215.168 515,215.346 515,212.559" stroke="#FDC150" fill="#FDC150" stroke-width="1"/>
  <path id="92" d="M 413.138,603.463 C 409.187,600.138 406.885,595.754 403.960,585.988 C 402.727,581.870 401.614,578.371 401.487,578.212 C 401.360,578.053 398.987,579.334 396.213,581.058 C 389.605,585.165 384.904,585.359 381.222,581.674 C 378.614,579.064 378.501,578.522 378.503,568.725 C 378.505,560.868 379.035,556.813 380.792,551.215 C 382.050,547.208 383.433,544.149 383.866,544.417 C 384.299,544.685 384.466,549.763 384.238,555.702 C 383.514,574.530 386.135,577.745 397.908,572.461 C 401.178,570.993 404.277,570.053 404.793,570.372 C 405.309,570.691 405.975,572.425 406.273,574.226 C 407.257,580.164 411.275,589.429 414.084,592.238 C 418.800,596.954 424.745,595.285 433.735,586.719 C 435.514,585.024 437.294,583.961 437.691,584.358 C 438.902,585.569 435.089,591.501 428.634,598.446 C 421.146,606.503 417.972,607.531 413.138,603.463" stroke="#FCC37A" fill="#FCC37A" stroke-width="1"/>
  <path id="83" d="M 477.350,286.029 C 472.845,284.163 472.250,276.723 475.706,265.500 C 477.994,258.071 478.576,258.260 478.170,266.301 C 477.517,279.232 481.592,280.758 502.676,275.479 C 508.454,274.032 513.412,273.079 513.693,273.360 C 513.974,273.641 510.896,275.538 506.852,277.575 C 492.604,284.751 481.763,287.857 477.350,286.029" stroke="#F79736" fill="#F79736" stroke-width="1"/>
  <path id="73" d="M 453.295,427.104 C 450.403,425.657 448.070,423.799 448.045,422.924 C 448,421.370 451.929,417 453.371,417 C 455.186,417 466.764,410.619 469.250,408.248 C 474.983,402.781 471.904,395.761 461.646,390.910 C 453.601,387.105 446.082,385.668 437.211,386.237 C 427.872,386.836 424.328,389.093 424.845,394.113 C 425.035,395.958 425.838,398.721 426.630,400.252 C 429.702,402.507 420.342,402.507 420.305,402.042 C 418.476,403.184 417.809,402.890 414.064,399.292 C 414.064,399.292 409.871,395.263 409.871,395.263 C 409.871,395.263 414.881,389.538 414.881,389.538 C 420.191,383.470 425.145,373.087 427.117,363.891 C 428.743,356.311 427.759,341.441 425.197,334.871 C 424.045,331.917 422.866,328.375 422.577,327 C 422.288,325.625 420.241,322.475 418.027,320 C 415.813,317.525 414.002,314.803 414.001,313.951 C 414,313.092 415.537,311.846 417.451,311.154 C 421.729,309.607 425.573,305.157 427.135,299.943 C 428.055,296.873 428.051,293.462 427.117,284.852 C 425.802,272.727 424.631,269.551 420.061,265.705 C 414.826,261.300 411.760,260.838 395.398,261.996 C 387.204,262.576 376.472,263.336 371.549,263.686 C 371.549,263.686 362.599,264.322 362.599,264.322 C 362.599,264.322 364.847,261.411 364.847,261.411 C 371.775,252.440 373.019,250.490 372.564,249.305 C 372.288,248.587 372.446,248 372.913,248 C 373.380,248 374.959,246.432 376.421,244.515 C 378.865,241.311 378.966,240.815 377.685,238.369 C 376.466,236.043 376.493,235.496 377.896,234.017 C 378.778,233.086 380.036,231.464 383.124,236 C 383.742,236 388.368,232.062 393.404,227.250 C 406.966,214.290 421.456,203.848 436.192,196.415 C 439.111,194.943 441.725,193.459 442,193.119 C 442.275,192.779 443.625,192.352 445,192.171 C 446.375,191.990 453.350,189.916 460.500,187.562 C 467.650,185.208 474.937,183.010 476.694,182.677 C 479.839,182.081 479.893,182.136 480.194,186.247 C 480.486,190.228 480.683,190.458 484.450,191.236 C 486.622,191.685 489.097,192.657 489.950,193.397 C 492.306,195.442 495.462,196.917 504.367,200.133 C 511.205,202.602 512.858,202.878 514.750,201.866 C 519.643,198.225 514.824,199.663 514.421,198.935 C 513.414,198.099 513.497,197.239 514.829,194.693 C 515.748,192.937 517.100,191.119 517.834,190.653 C 519.962,189.303 515.176,184.739 512.371,185.443 C 510.654,185.874 510.289,185.618 510.658,184.245 C 510.916,183.285 511.793,181.600 512.607,180.500 C 513.942,178.697 515.046,178.530 523.794,178.810 C 529.649,178.997 534.657,179.695 536.416,180.567 C 538.981,181.839 539.613,181.828 541.666,180.483 C 544.400,178.692 544.503,177.679 542.525,172.072 C 541.348,168.737 541.296,167.499 542.266,165.946 C 543.779,163.524 543.241,163.488 552.636,166.626 C 561.454,169.571 568.033,172.699 575.689,177.585 C 584.669,183.316 588.418,184.834 601.127,187.884 C 614.306,191.047 627.121,195.283 638.472,200.229 C 644.941,203.048 646.060,203.229 653.972,202.737 C 663.799,202.126 677.138,203.204 681.500,204.961 C 681.500,204.961 684.500,206.170 684.500,206.170 C 684.500,206.170 679.250,211.021 679.250,211.021 C 676.362,213.689 674,216.336 674,216.905 C 674,217.474 677.487,220.274 681.750,223.128 C 691.576,229.707 702,237.906 702,239.056 C 702,239.542 699.862,240.580 697.250,241.363 C 694.212,242.274 692.619,243.275 692.832,244.143 C 693.015,244.889 692.086,244.488 690.768,243.250 C 687.990,240.643 681.812,240.278 671.335,242.102 C 666.307,242.978 664.497,243.810 662.529,246.148 C 658.967,250.382 657.523,256.236 657.511,266.500 C 657.499,276.192 658.989,282.239 663.851,292.230 C 665.721,296.073 666.308,298.292 665.633,298.967 C 664.958,299.642 664.051,299.450 662.877,298.388 C 660.417,296.161 658.743,297.552 659.536,301.163 C 648.462,305.915 648.462,300.929 645.495,304.002 C 642.421,305.171 641.184,310.440 643.406,312.896 C 645.492,315.201 645.418,316 643.122,316 C 642.089,316 640.556,314.987 639.715,313.750 C 634.466,309.471 640.159,320.252 640,318.638 C 640,319.692 643.834,323.231 645.868,324.055 C 646.656,327.036 639.449,332.769 642.009,328 C 641.979,326.625 641.090,324.375 640.032,323 C 637.993,318.217 637.993,329.821 635.683,325.780 C 635.032,324.999 633.342,323.645 631.926,322.772 C 629.427,321.230 629.274,321.283 626.634,324.592 C 623.540,328.469 621.548,328.892 620,326 C 617.187,322.035 608.048,334.287 603.988,329.488 C 602.703,328.120 600.839,327 599.847,327 C 598.855,327 582.261,319.125 562.972,309.500 C 525.428,290.766 524.031,290.289 516.254,293.538 C 510.798,295.818 509.208,297.642 504.483,307.041 C 498.719,318.508 497.611,322.842 499.065,328.241 C 500.699,334.308 503.445,337.670 509.610,341.149 C 509.610,341.149 515.013,344.198 515.013,344.198 C 515.013,344.198 510.256,347.986 510.256,347.986 C 499.638,356.442 493.039,369.936 493.012,383.250 C 493.005,386.413 492.550,389 492,389 C 491.404,389 491,392.814 491,398.441 C 491,407.983 490.180,410.224 487.500,408 C 485.802,406.591 483.655,407.658 484.381,409.550 C 485.090,411.397 481.267,412.466 479.423,410.936 C 478.216,409.934 477.473,410.146 475.414,412.081 C 473.919,413.485 473.075,415.180 473.349,416.228 C 473.659,417.413 473.247,418 472.104,418 C 470.071,418 459.983,426.955 459.993,428.750 C 460.002,430.348 459.565,430.241 453.295,427.104M 493.500,283.522 C 501.223,280.633 514.357,274.024 513.693,273.360 C 513.412,273.079 508.454,274.032 502.676,275.479 C 488.562,279.013 482.340,279.139 479.752,275.943 C 478.128,273.938 477.865,272.333 478.170,266.301 C 478.576,258.260 477.994,258.071 475.706,265.500 C 473.256,273.456 472.801,277.868 474.043,281.632 C 475.993,287.541 481.360,288.063 493.500,283.522M 481,251.500 C 481,250.675 480.888,249.984 480.750,249.965 C 475.847,249.281 464.787,246.921 462.750,246.125 C 458.666,244.528 459.073,240.899 463.750,237.212 C 473.729,229.346 499.739,214.451 511.899,209.638 C 514.484,208.615 515.927,207.530 515.399,207.007 C 514.905,206.517 510.225,204.488 505,202.499 C 499.775,200.510 493.531,197.784 491.124,196.441 C 486.057,193.614 484.231,193.459 479.468,195.449 C 472.834,198.221 475.450,199.984 493.043,204.595 C 498.795,206.103 503.894,207.676 504.376,208.093 C 504.858,208.510 501.486,210.744 496.884,213.058 C 472.939,225.097 451.313,238.678 448.897,243.192 C 448.319,244.272 448.099,245.816 448.409,246.623 C 449.674,249.920 460.886,252.480 475.750,252.864 C 479.810,252.969 481,252.660 481,251.500M 521.554,219.913 C 522.585,218.246 520.267,216.333 518.887,217.713 C 517.733,218.867 518.455,221 520,221 C 520.485,221 521.184,220.511 521.554,219.913M 519.733,211.569 C 520.961,210.431 521.973,208.868 521.983,208.095 C 522.744,206.622 513.192,211.848 515,212.559 C 515,215.346 515.849,215.168 519.733,211.569" stroke="#FDB94D" fill="#FDB94D" stroke-width="1"/>
  <path id="84" d="M 813.384,703.557 C 813.079,702.763 813.543,698.665 814.415,694.450 C 815.287,690.235 816,685.061 816,682.952 C 816,678.159 817.546,676.982 818.378,681.141 C 819.182,685.159 819.180,697.850 818.375,701.875 C 817.707,705.213 814.442,706.314 813.384,703.557" stroke="#EB7122" fill="#EB7122" stroke-width="1"/>
  <path id="87" d="M 634.376,810.965 C 630.639,809.820 627.795,807 630.378,807 C 632.577,807 632.429,806.299 629.500,802.818 C 628.125,801.184 627,799.431 627,798.923 C 627,797.140 628.646,798.030 630.842,801 C 632.062,802.650 633.735,804 634.561,804 C 637.244,804 637.263,801.102 634.601,797.938 C 628.998,791.279 633.580,782 642.471,782 C 646.172,782 653.046,786.188 654.759,789.487 C 658.247,796.203 655.625,805.448 649.152,809.258 C 645.453,811.435 638.524,812.235 634.376,810.965M 647.354,802.548 C 649.270,800.772 650,799.104 650,796.500 C 650,790.711 643.518,785.882 640.200,789.200 C 637.741,791.659 638.981,794.634 642.250,794.118 C 643.947,793.850 642.827,798.539 640.449,801.656 C 640.449,801.656 637.898,805 637.898,805 C 637.898,805 641.303,805 641.303,805 C 643.531,805 645.622,804.153 647.354,802.548" stroke="#E05B67" fill="#E05B67" stroke-width="1"/>
  <path id="3" d="M 779,558.124 C 769.961,555.150 761.500,547.611 757.734,539.176 C 755.287,533.694 754.225,520.020 755.909,515.681 C 756.731,513.564 757.564,512.941 759.252,513.181 C 761.391,513.485 761.501,513.939 761.526,522.500 C 761.558,533.627 764.018,539.872 770.907,546.316 C 781.356,556.090 797.399,554.622 805.458,543.155 C 808.118,539.371 808.500,537.982 808.500,532.091 C 808.500,526.415 808.067,524.700 805.749,521.197 C 796.830,507.720 777,511.757 777,527.050 C 777,535.474 787.598,541.402 793,536 C 797.903,531.097 792.968,524.004 787.866,528.621 C 783.495,532.577 781.200,526.710 785.455,522.455 C 789.067,518.843 793.378,519.178 797.600,523.400 C 800.395,526.195 801,527.553 801,531.032 C 801,543.856 786.166,549.036 776.169,539.702 C 766.591,530.759 769.430,514.803 781.700,508.614 C 786.217,506.336 796.087,506.494 800.843,508.920 C 819.529,518.453 819.613,545.281 800.988,555.412 C 796.803,557.689 794.092,558.391 788.567,558.635 C 784.680,558.806 780.375,558.576 779,558.124" stroke="#F5768E" fill="#F5768E" stroke-width="1"/>
  <path id="3" d="M 223,387.262 C 223,385.672 225.185,384.298 229,383.490 C 230.925,383.082 232.725,382.433 233,382.046 C 233.275,381.659 235.894,380.052 238.819,378.475 C 249.028,372.971 255.047,363.172 255.786,350.857 C 256.182,344.249 255.909,342.479 253.762,337.790 C 250.461,330.580 245.022,325.480 237.843,322.862 C 234.629,321.690 232,320.412 232,320.021 C 232,318.881 235.538,316 236.939,316 C 239.669,316 250.211,322.491 253.633,326.279 C 259.497,332.770 262.353,340.179 262.383,348.980 C 262.409,356.596 259.666,367.529 257.989,366.493 C 257.524,366.206 256.853,366.888 256.497,368.009 C 255.136,372.296 245.189,381.642 239.059,384.393 C 232.636,387.275 223,388.997 223,387.262" stroke="#F5768E" fill="#F5768E" stroke-width="1"/>
  <path id="91" d="M 257.514,515 C 259.386,505.958 273.116,476.761 274.468,478.948 C 274.823,479.522 272.654,484.606 269.648,490.246 C 266.642,495.886 262.945,504.100 261.433,508.500 C 258.425,517.255 256.327,520.735 257.514,515" stroke="#FBF7EA" fill="#FBF7EA" stroke-width="1"/>
  <path id="73" d="M 240.081,369.893 C 240.081,369.893 238.192,366.786 238.192,366.786 C 238.192,366.786 241.160,362.575 241.160,362.575 C 245.087,357.004 246.235,351.818 244.954,345.440 C 243.150,336.461 235.860,330 227.532,330 C 225.589,330 224.014,329.663 224.030,329.250 C 224.046,328.837 225.734,326.641 227.780,324.369 C 227.780,324.369 231.500,320.237 231.500,320.237 C 231.500,320.237 237.646,322.666 237.646,322.666 C 245.169,325.640 250.482,330.625 253.762,337.790 C 257.127,345.141 256.658,355.893 252.628,363.787 C 251.143,366.695 249.560,368.846 249.110,368.568 C 248.660,368.290 247.247,369.173 245.971,370.531 C 242.983,373.711 242.362,373.644 240.081,369.893" stroke="#FDB94D" fill="#FDB94D" stroke-width="1"/>
  <path id="28" d="M 704.951,417.638 C 698.839,415.990 694.197,412.987 688.736,407.149 C 683.282,401.318 680.503,396.126 678.361,387.764 C 672.698,365.659 689.509,344.119 708.665,348.936 C 722.563,352.431 733.990,364.108 737.968,378.881 C 738.612,381.272 739.129,386.410 739.117,390.298 C 739.099,396.158 738.563,398.446 735.987,403.678 C 732.525,410.711 728.651,414.185 721.048,417.074 C 715.286,419.264 711.472,419.397 704.951,417.638" stroke="#C0511F" fill="#C0511F" stroke-width="1"/>
  <path id="77" d="M 221.667,389.333 C 220.270,387.936 221.090,384.990 223.250,383.643 C 225.900,381.991 233,380.759 233,381.952 C 233,382.406 231.312,383.093 229.250,383.478 C 221.550,384.917 220.529,388.571 228.077,387.677 C 238.612,386.429 248.858,379.754 255.127,370.054 C 256.932,367.262 258,366.282 258,367.420 C 258,370.617 251.087,378.776 244.851,382.940 C 236.644,388.421 224.189,391.855 221.667,389.333" stroke="#FD8388" fill="#FD8388" stroke-width="1"/>
  <path id="90" d="M 661.726,806.393 C 661.354,806.021 661.322,802.501 661.654,798.571 C 662.166,792.517 661.937,790.796 660.157,787.307 C 657.991,783.062 654.306,779.550 650.876,778.461 C 649.412,777.996 649.082,777.289 649.571,775.669 C 650.636,772.136 651.672,771.621 654.965,772.985 C 664.194,776.808 671.160,795.196 666.710,803.991 C 665.449,806.484 662.998,807.665 661.726,806.393" stroke="#E85A6B" fill="#E85A6B" stroke-width="1"/>
  <path id="84" d="M 574,874.042 C 574,870.876 586.818,855.844 595.916,848.339 C 599.460,845.416 602.541,843.208 602.764,843.431 C 602.987,843.654 600.510,849.161 597.258,855.668 C 594.006,862.176 591.087,868.507 590.770,869.738 C 590.090,872.379 586.895,873.760 579.439,874.636 C 575.448,875.105 574,874.947 574,874.042" stroke="#EB7122" fill="#EB7122" stroke-width="1"/>
  <path id="89" d="M 682,729.543 C 682,729.200 682.999,727.568 684.220,725.917 C 687.320,721.724 687.972,710.481 685.440,704.867 C 682.966,699.380 675.096,693.288 669.378,692.430 C 660.105,691.039 653.808,693.823 647.955,701.903 C 644.157,707.146 642.961,706.622 646.076,701.079 C 650.223,693.701 659.456,689.273 668.256,690.440 C 677.561,691.674 684.349,696.727 687.553,704.805 C 690.643,712.596 687.949,728.184 683.241,729.753 C 682.559,729.980 682,729.886 682,729.543" stroke="#E66558" fill="#E66558" stroke-width="1"/>
  <path id="83" d="M 759.914,721.076 C 752.409,718.711 749,713.719 749,705.091 C 749,702.356 748.583,699.861 748.074,699.546 C 747.506,699.195 747.506,697.725 748.074,695.743 C 748.583,693.967 749,688.293 749,683.135 C 749,674.069 748.936,673.802 747.075,675.128 C 729.721,687.495 725.447,689.255 719.561,686.462 C 711.111,682.452 709.157,675.428 712.984,662.827 C 715.431,654.772 720.886,642.881 723.896,639.042 C 723.896,639.042 725.823,636.583 725.823,636.583 C 725.823,636.583 734.161,640.737 734.161,640.737 C 745.509,646.390 756.644,649.038 773.223,650.029 C 796.480,651.419 822.269,647.496 834.371,640.726 C 834.371,640.726 838.500,638.417 838.500,638.417 C 838.500,638.417 837.863,654.958 837.863,654.958 C 836.900,679.953 833.161,693.831 825.485,700.907 C 818.783,707.085 818.157,706.640 818.757,696.122 C 819.312,686.388 818.405,677.632 816.936,678.540 C 816.421,678.858 816,680.843 816,682.952 C 816,685.061 815.287,690.235 814.415,694.450 C 813.543,698.665 813.098,702.814 813.426,703.669 C 813.846,704.764 813.577,705.052 812.512,704.643 C 811.464,704.241 810.550,705.143 809.527,707.590 C 805.044,718.319 795.671,723.222 786.053,719.869 C 783.910,719.122 783.226,718.478 784.040,717.975 C 786.034,716.743 789.078,703.256 789.677,693 C 790.316,682.056 789.176,681.816 786.601,692.351 C 785.680,696.119 783.594,701.843 781.964,705.072 C 780.334,708.301 779,711.630 776,714.949 C 776,716.687 769.548,720.824 766,721.361 C 764.075,721.652 761.337,721.524 759.914,721.076" stroke="#F79736" fill="#F79736" stroke-width="1"/>
  <path id="86" d="M 583.328,813.574 C 579.384,812.828 571.958,810.818 566.828,809.109 C 557.428,805.978 555.282,805.666 552.043,802.156 C 552.604,801.967 555.861,802.924 559.281,804.282 C 572.440,809.507 589.795,813 602.591,813 C 609.353,813 611.510,811.801 612.607,807.430 C 613.024,805.768 613.919,805 615.439,805 C 618.734,805 620.398,801.142 619.548,795.474 C 619.119,792.611 619.213,791.013 619.788,791.369 C 620.306,791.689 620.978,793.795 621.280,796.049 C 621.582,798.303 622.993,801.825 624.415,803.877 C 625.837,805.929 627,808.114 627,808.732 C 627,809.350 624.412,810.858 621.250,812.083 C 613.995,814.892 594.372,815.664 583.328,813.574" stroke="#F7A140" fill="#F7A140" stroke-width="1"/>
  <path id="86" d="M 630.084,800.106 C 625.864,794.778 625.709,787.687 629.709,782.934 C 636.310,775.089 651.314,773.460 649.354,780.801 C 648.832,782.755 648.295,783.004 645.792,782.454 C 640.614,781.317 636.102,782.784 633.956,786.304 C 631.304,790.654 631.503,794.257 634.601,797.938 C 637.242,801.076 637.248,804 634.615,804 C 633.819,804 631.780,802.248 630.084,800.106" stroke="#F7A140" fill="#F7A140" stroke-width="1"/>
  <path id="84" d="M 363.551,804.082 C 362.199,801.895 379.138,784.016 392,774.053 C 401.638,766.587 403.788,767.434 397.376,776.169 C 395.383,778.884 391.811,785.695 389.439,791.303 C 385.401,800.849 384.882,801.587 381.313,802.856 C 375.935,804.769 364.465,805.560 363.551,804.082" stroke="#EB7122" fill="#EB7122" stroke-width="1"/>
  <path id="84" d="M 368.880,374.682 C 357.614,371.495 349.429,362.875 346.415,351.022 C 344.319,342.780 345,335.769 348.628,328.247 C 350.152,325.086 351.352,321.825 351.294,321 C 350.426,319.750 358.697,326.375 355.073,326.635 C 352.699,329.654 352.390,333.783 354.340,336.450 C 355.204,337.631 355.516,339.985 355.219,343.075 C 354.102,354.704 364.930,365 378.277,365 C 382.620,365 384.718,364.338 389.507,361.454 C 392.746,359.504 397.388,357.635 399.822,357.301 C 403.479,356.800 404.591,356.113 406.223,353.347 C 408.854,348.887 409.176,349.128 407.429,354.250 C 402.223,369.510 384.258,379.032 368.880,374.682" stroke="#EB7122" fill="#EB7122" stroke-width="1"/>
  <path id="91" d="M 752.503,292.003 C 750.737,290.051 750.771,289.816 753.724,283.747 C 761.967,266.804 761.869,245.329 753.474,228.913 C 752.514,227.036 751.134,225.151 750.406,224.724 C 749.678,224.297 749.306,223.365 749.579,222.654 C 750.196,221.047 740.114,211.374 736.317,209.930 C 732.588,208.512 727.799,209.520 725.221,212.265 C 724.067,213.494 722.102,217.200 720.855,220.500 C 719.191,224.902 716.935,228.165 712.386,232.750 C 708.975,236.188 705.444,239 704.539,239 C 703.634,239 699.880,236.592 696.197,233.648 C 692.514,230.704 686.013,225.965 681.750,223.117 C 677.487,220.269 674.020,217.391 674.045,216.720 C 674.109,214.979 684,206.536 684,208.222 C 684,208.984 682.425,211.134 680.500,213 C 678.575,214.866 677,216.714 677,217.107 C 677,217.500 679.812,219.608 683.250,221.791 C 686.688,223.974 692.650,228.287 696.500,231.375 C 700.350,234.463 703.789,236.991 704.142,236.994 C 704.495,236.997 707.081,234.935 709.889,232.410 C 713.532,229.134 716.027,225.626 718.601,220.160 C 723.081,210.646 725.188,208.313 730.042,207.493 C 744.496,205.051 760.294,228.011 761.708,253.512 C 762.330,264.732 760.124,276.165 755.544,285.458 C 753.725,289.149 753.380,290.752 754.193,291.732 C 756.007,293.917 754.460,294.165 752.503,292.003" stroke="#FBF7EA" fill="#FBF7EA" stroke-width="1"/>
  <path id="91" d="M 328.990,685.489 C 327.400,683.797 326.400,683.352 325.923,684.124 C 325.458,684.877 324.803,684.499 324.012,683.022 C 323.350,681.785 319.814,677.542 316.154,673.593 C 307.843,664.625 297.020,648.515 290.721,635.738 C 286.342,626.855 278.954,606.602 279.032,603.693 C 279.081,601.843 282,606.161 284.595,612.613 C 283.951,614.292 289.189,628.334 294.252,638.500 C 297.127,644.272 307.685,660.273 312.728,666.500 C 314.064,668.150 319.236,673.662 324.220,678.750 C 329.204,683.838 332.847,688 332.315,688 C 331.784,688 330.287,686.870 328.990,685.489" stroke="#FBF7EA" fill="#FBF7EA" stroke-width="1"/>
  <path id="22" d="M 367.500,391.598 C 355.695,387.855 346.831,380.075 341.466,368.747 C 334.989,355.071 334.793,340.450 340.912,327.374 C 343.871,321.050 343.928,321 348.031,321 C 350.306,321 351.995,321.337 351.785,321.750 C 344.930,335.233 343.870,341.009 346.411,351.022 C 348.589,359.606 353.563,366.709 360.209,370.727 C 370.725,377.085 382.051,377.398 392.531,371.620 C 410.540,361.691 414.950,337.170 401.430,322.133 C 398.994,319.423 397,316.730 397,316.148 C 397,315.133 400.253,314.304 406.374,313.757 C 412.810,313.182 422.012,332.951 421.988,347.302 C 421.954,368.077 409.343,386.068 391.069,391.412 C 384.646,393.290 373.123,393.381 367.500,391.598" stroke="#FEFEFE" fill="#FEFEFE" stroke-width="1"/>
  <path id="65" d="M 451,471.057 C 448.079,469.618 440.933,467.845 424.162,464.398 C 422.202,463.995 422.026,463.673 423.079,462.404 C 425.163,459.893 427.495,459.064 434.150,458.467 C 439.355,458 441,458.238 443.270,459.782 C 446.585,462.037 456.918,473.836 454.750,472.891 C 454.612,472.831 452.925,472.006 451,471.057" stroke="#EC7422" fill="#EC7422" stroke-width="1"/>
  <path id="91" d="M 640,200.848 C 630.903,196.679 613.171,190.762 601.127,187.878 C 588.417,184.834 584.668,183.318 575.689,177.584 C 572.835,175.762 567.575,172.773 564,170.942 C 559.951,168.869 558.135,167.476 559.183,167.247 C 561.216,166.803 564.294,168.324 578.070,176.578 C 586.990,181.923 590.311,183.306 599.339,185.439 C 611.450,188.301 626.920,193.309 638,197.955 C 645.191,200.970 646.046,201.095 658.750,201.006 C 666.037,200.955 672,201.286 672,201.741 C 672,202.196 665.812,202.645 658.250,202.739 C 646.255,202.888 643.926,202.647 640,200.848" stroke="#FBF7EA" fill="#FBF7EA" stroke-width="1"/>
  <path id="22" d="M 510.913,375.718 C 506.742,372.516 505.988,367.557 509.073,363.635 C 513.400,358.134 523,361.832 523,369 C 523,374.985 515.435,379.189 510.913,375.718" stroke="#FEFEFE" fill="#FEFEFE" stroke-width="1"/>
  <path id="84" d="M 341.500,784.509 C 340.950,784.326 339.263,783.902 337.750,783.568 C 336.130,783.211 335,782.296 335,781.341 C 335,777.011 361.298,755.932 365.113,757.204 C 365.776,757.425 363.817,760.372 360.633,763.940 C 357.520,767.428 353.339,773.031 351.341,776.391 C 346.647,784.284 344.972,785.667 341.500,784.509" stroke="#EB7122" fill="#EB7122" stroke-width="1"/>
  <path id="83" d="M 395.395,807.846 C 396.225,806.661 401.377,802.499 406.844,798.596 C 420.101,789.132 431.057,780.065 439.201,771.817 C 443.068,767.901 446.177,765.478 446.555,766.089 C 446.915,766.671 446.150,768.304 444.855,769.717 C 441.577,773.293 416.073,794.488 406.982,801.192 C 402.847,804.241 398.855,807.469 398.110,808.367 C 397.365,809.265 396.110,810 395.321,810 C 394.098,810 394.109,809.682 395.395,807.846" stroke="#F79736" fill="#F79736" stroke-width="1"/>
  <path id="3" d="M 210.877,369.551 C 204.835,366.335 200.495,361.314 202.093,359.388 C 203.748,357.394 204.944,357.660 207.194,360.520 C 210.323,364.498 214.856,366.345 221.530,366.361 C 229.855,366.381 234.831,363.827 237.750,358.038 C 240.408,352.768 240.591,348.518 238.399,343.039 C 235.787,336.510 227.574,333.017 221.934,336.035 C 220.340,336.888 220,336.739 220,335.190 C 220,330.487 227.476,328.501 234.357,331.376 C 241.881,334.520 247.099,345.686 245.076,354.313 C 243.819,359.673 240.013,365.026 234.976,368.517 C 231.254,371.097 229.646,371.535 223.086,371.756 C 216.644,371.973 214.803,371.641 210.877,369.551" stroke="#F5768E" fill="#F5768E" stroke-width="1"/>
  <path id="90" d="M 649.332,739.149 C 631.224,732.891 624.684,713.164 634.280,693.747 C 637.938,686.346 644.055,679.519 646.344,680.281 C 648.926,681.141 648.045,684.379 644.143,688.365 C 638.276,694.358 635.937,700.350 635.889,709.504 C 635.842,718.444 638.134,724.155 643.745,729.081 C 649.220,733.888 653.498,735.314 660.708,734.735 C 671.825,733.843 680.982,726.937 682.978,717.941 C 684.050,713.109 683.965,711.940 682.212,707.504 C 679.572,700.821 674.633,696.863 668.156,696.241 C 653.982,694.879 645.430,706.724 651.883,718.781 C 653.284,721.400 659.116,723.353 662.991,722.502 C 668.928,721.198 672.136,713.243 668.171,709.655 C 665.014,706.798 661,708.222 661,712.200 C 661,714.382 658.445,714.601 657.634,712.488 C 656.702,710.059 659.016,706.235 662.223,704.907 C 666.213,703.254 669.840,704.638 672.719,708.911 C 677.506,716.015 674.242,723.430 664.972,726.509 C 658.647,728.610 654.902,727.810 649.897,723.288 C 645.687,719.484 643.433,713.587 644.380,708.852 C 645.115,705.178 650.238,698.204 654.353,695.276 C 663.788,688.563 679.431,693.084 685.080,704.156 C 687.697,709.285 687.691,719.242 685.068,724 C 684.007,725.925 682.675,728.498 682.107,729.717 C 680.608,732.937 673.446,737.790 667.655,739.510 C 661.105,741.455 655.697,741.349 649.332,739.149" stroke="#E85A6B" fill="#E85A6B" stroke-width="1"/>
  <path id="86" d="M 623.623,779.500 C 624.793,776.372 631.092,769.209 631.750,765.378 C 629.963,765.711 625.800,766.267 622.500,766.615 C 614.407,767.469 616.314,765.769 626,763.495 C 630.125,762.527 636.995,760.647 641.267,759.318 C 645.539,757.989 649.476,757.176 650.017,757.510 C 650.558,757.844 651,760.952 651,764.415 C 651,764.415 651,770.712 651,770.712 C 651,770.712 644.250,770.676 644.250,770.676 C 636.531,770.635 631.455,772.735 626.135,778.170 C 623.861,780.493 623.101,780.895 623.623,779.500" stroke="#F7A140" fill="#F7A140" stroke-width="1"/>
  <path id="84" d="M 780.655,716.171 C 778.349,713.623 778.563,711.809 781.964,705.072 C 783.594,701.843 785.680,696.119 786.601,692.351 C 788.899,682.949 790,682.288 790,690.311 C 790,696.156 787.325,711.384 785.431,716.320 C 784.590,718.512 782.720,718.453 780.655,716.171" stroke="#EB7122" fill="#EB7122" stroke-width="1"/>
  <path id="91" d="M 256.975,530.435 C 255.715,527.120 255.727,524.713 257,525.500 C 257.550,525.840 258,527.230 258,528.590 C 258,532.086 259.887,532.409 266.582,530.056 C 273.553,527.606 274,527.571 274,529.469 C 274,530.277 273.417,530.713 272.705,530.440 C 271.993,530.167 269.462,530.632 267.080,531.472 C 260.685,533.728 258.127,533.466 256.975,530.435" stroke="#FBF7EA" fill="#FBF7EA" stroke-width="1"/>
  <path id="67" d="M 518.446,219.913 C 517.415,218.246 519.733,216.333 521.113,217.713 C 522.267,218.867 521.545,221 520,221 C 519.515,221 518.816,220.511 518.446,219.913" stroke="#FDC150" fill="#FDC150" stroke-width="1"/>
  <path id="89" d="M 676,727.460 C 676,727.163 676.932,725.658 678.071,724.118 C 679.210,722.578 680.578,719.376 681.111,717.002 C 682.475,710.933 678.823,703.393 672.912,700.071 C 664.589,695.393 654.327,699.357 651.955,708.166 C 649.432,717.537 658.193,724.568 665.365,718.927 C 668.149,716.737 668.805,713.205 666.800,711.200 C 664.802,709.202 663.150,709.844 662.816,712.750 C 662.381,716.529 658.725,717.036 656.492,713.628 C 655.156,711.589 655.076,710.711 656.057,708.817 C 659.257,702.635 664.427,700.617 669.862,703.428 C 673.025,705.063 676.726,710.651 675.437,711.843 C 675.046,712.204 674.490,711.830 674.200,711.010 C 673.272,708.384 668.221,704 666.124,704 C 661.058,704 656.229,708.827 657.634,712.488 C 658.445,714.601 661,714.382 661,712.200 C 661,708.126 665.492,706.676 668.345,709.829 C 671.959,713.822 668.834,721.219 662.991,722.502 C 647.635,725.875 644.630,701.908 659.782,696.907 C 669.109,693.829 678.576,698.302 682.212,707.504 C 683.938,711.872 684.041,713.152 683.035,717.689 C 681.915,722.739 678.798,728 676.927,728 C 676.417,728 676,727.757 676,727.460" stroke="#E66558" fill="#E66558" stroke-width="1"/>
  <path id="84" d="M 345.500,266.479 C 344.414,264.746 334.096,261 330.410,261 C 326.524,261 322.519,259.081 323.777,257.823 C 326.267,255.333 359.278,257.321 362.450,260.152 C 363.392,260.490 359.683,267.863 357.750,266.714 C 355.962,266.635 352.700,266.908 350.500,267.322 C 347.351,267.914 346.287,267.735 345.500,266.479" stroke="#EB7122" fill="#EB7122" stroke-width="1"/>
  <path id="73" d="M 264.896,356.896 C 264.839,356.678 264.593,354.027 264.350,351.004 C 264.107,347.981 263.479,345.079 262.954,344.554 C 262.429,344.029 262,342.862 262,341.960 C 262,338.701 255.838,328.086 251.859,324.492 C 249.621,322.470 245.150,319.567 241.923,318.041 C 241.923,318.041 236.056,315.266 236.056,315.266 C 236.056,315.266 251.778,299.862 251.778,299.862 C 260.425,291.389 271.325,281.416 276,277.698 C 276,277.698 284.500,270.939 284.500,270.939 C 284.500,270.939 285.250,274.719 285.250,274.719 C 286.461,280.827 289.068,287.149 292.584,292.506 C 294.391,295.259 297.248,301.248 298.932,305.816 C 300.616,310.384 302.451,314.974 300.500,321 C 301.489,322.600 297.067,324.300 295.436,322.947 C 293.713,326.146 292.516,330.092 292,330.655 C 292,332.828 288.034,338.139 286.924,337.453 C 286.397,338.112 284.141,344.323 284,343.465 C 284,345.536 280.963,346.906 277.739,346.290 C 275.694,345.899 275,346.165 275,347.337 C 275,348.200 273.822,349.715 272.381,350.703 C 270.940,351.691 268.690,353.578 267.381,354.896 C 266.072,356.214 264.953,357.114 264.896,356.896" stroke="#FDB94D" fill="#FDB94D" stroke-width="1"/>
  <path id="92" d="M 841,568.626 C 841,567.870 838.698,559.658 835.886,550.376 C 829.981,530.888 829.295,528.071 830.806,529.500 C 833.249,531.811 843.440,570 841.614,570 C 841.277,570 841,569.382 841,568.626" stroke="#FCC37A" fill="#FCC37A" stroke-width="1"/>
  <path id="91" d="M 434,189 C 433.175,188.467 431.592,188.023 430.483,188.015 C 426.919,187.988 418.344,179.445 414.940,172.530 C 412.251,167.068 411.756,164.867 411.528,157.381 C 411.282,149.275 411.061,148.450 408.575,146.311 C 402.870,141.403 390.722,144.660 380.935,153.721 C 377.637,156.774 374.615,158.944 374.219,158.542 C 373.190,157.497 384.324,147.385 389.305,144.842 C 391.811,143.562 396.156,142.510 400.096,142.227 C 406.293,141.782 406.891,141.931 409.969,144.681 C 413.133,147.508 413.256,147.908 413.570,156.350 C 413.819,163.034 414.477,166.362 416.368,170.492 C 419.235,176.754 426.032,183.955 431.905,186.951 C 434.157,188.100 436,189.256 436,189.520 C 436,190.185 435.722,190.113 434,189" stroke="#FBF7EA" fill="#FBF7EA" stroke-width="1"/>
  <path id="90" d="M 342.859,730.705 C 335.658,719.526 335.457,719 338.388,719 C 344.327,719 350.052,728.222 348.283,734.936 C 348.283,734.936 347.500,737.909 347.500,737.909 C 347.500,737.909 342.859,730.705 342.859,730.705" stroke="#E85A6B" fill="#E85A6B" stroke-width="1"/>
  <path id="89" d="M 636.011,703 C 636.029,700.047 640.808,691.445 644.068,688.500 C 644.068,688.500 647.388,685.500 647.388,685.500 C 647.388,685.500 644.540,689 644.540,689 C 642.973,690.925 640.411,695.200 638.846,698.500 C 637.281,701.800 636.006,703.825 636.011,703" stroke="#E66558" fill="#E66558" stroke-width="1"/>
  <path id="86" d="M 586.468,723.881 C 597.673,713.399 604.793,702.698 609.559,689.174 C 610.785,685.695 612.075,683.312 612.425,683.878 C 613.600,685.780 606.830,701.124 600.910,709.974 C 594.968,718.858 584.116,730 581.406,730 C 580.592,730 582.870,727.247 586.468,723.881" stroke="#F7A140" fill="#F7A140" stroke-width="1"/>
  <path id="84" d="M 367.522,251.500 C 368.302,246.741 368.272,246.783 370.357,247.583 C 372.605,248.446 372.429,249.419 369.433,252.694 C 369.433,252.694 366.866,255.500 366.866,255.500 C 366.866,255.500 367.522,251.500 367.522,251.500" stroke="#EB7122" fill="#EB7122" stroke-width="1"/>
  <path id="83" d="M 463.500,251.985 C 455.730,251.160 449.269,248.865 448.409,246.623 C 448.099,245.816 448.319,244.272 448.897,243.192 C 451.313,238.678 472.939,225.097 496.884,213.058 C 501.486,210.744 504.858,208.510 504.376,208.093 C 503.894,207.676 498.795,206.103 493.043,204.595 C 475.450,199.984 472.834,198.221 479.468,195.449 C 484.231,193.459 486.057,193.614 491.124,196.441 C 493.531,197.784 499.775,200.510 505,202.499 C 510.225,204.488 514.905,206.517 515.399,207.007 C 515.927,207.530 514.484,208.615 511.899,209.638 C 499.739,214.451 473.729,229.346 463.750,237.212 C 459.073,240.899 458.666,244.528 462.750,246.125 C 464.787,246.921 475.847,249.281 480.750,249.965 C 480.888,249.984 481,250.675 481,251.500 C 481,253.176 476.017,253.314 463.500,251.985" stroke="#F79736" fill="#F79736" stroke-width="1"/>
  <path id="77" d="M 216.500,366.109 C 212.172,365.011 209.429,363.361 207.184,360.506 C 199.389,359.035 208.475,349.137 207.880,354.959 C 208.771,356.808 211.106,359.611 213.068,361.188 C 217.627,364.851 225.886,365.420 231.014,362.423 C 237.319,358.739 239.944,349.660 236.583,343.161 C 233.436,337.076 224.739,335.315 220.571,339.921 C 218.099,342.652 218.754,349.500 221.487,349.500 C 222.679,349.500 224.013,348.374 224.822,346.686 C 227.641,340.805 232.815,342.843 231.594,349.353 C 230.655,354.359 226.037,358.007 220.673,357.978 C 215.863,357.952 212.971,356.001 210.518,351.126 C 208.966,348.042 208.957,347.614 210.410,346.161 C 211.863,344.708 212,344.723 212,346.335 C 212,349.601 215.107,354.142 218.245,355.461 C 223.935,357.853 230,353.888 230,347.777 C 230,344.276 227.456,344.047 226.597,347.471 C 225.324,352.542 218.768,353.150 216.949,348.366 C 215.661,344.979 216.362,338.748 221.934,336.035 C 229.964,331.737 240,339.666 240,350.308 C 240,355.400 236.060,362.231 232,364.179 C 227.712,366.236 220.529,367.131 216.500,366.109" stroke="#FD8388" fill="#FD8388" stroke-width="1"/>
  <path id="73" d="M 337.768,239.275 C 339.565,239.052 342.265,239.057 343.768,239.285 C 345.271,239.513 343.800,239.696 340.500,239.690 C 337.200,239.684 335.971,239.498 337.768,239.275" stroke="#FDB94D" fill="#FDB94D" stroke-width="1"/>
  <path id="70" d="M 537.500,446.918 C 533.930,446.396 528.058,444.346 523,441.854 C 511.821,436.347 503.852,428.448 498.684,417.750 C 495.075,410.280 492.476,401 493.992,401 C 494.396,401 496.113,403.820 497.810,407.267 C 512.090,436.274 551.741,443.042 574.437,420.346 C 584.625,410.158 589.855,395.685 588.565,381.250 C 588.040,375.379 588.184,374 589.323,374 C 590.097,374 591.850,373.119 595.243,372.508 C 594.988,373.840 595.283,376.375 595.899,378.141 C 598.056,384.328 598.333,394.238 596.596,403.071 C 590.815,432.458 565.759,451.049 537.500,446.918" stroke="#EB6821" fill="#EB6821" stroke-width="1"/>
  <path id="69" d="M 219.711,437.996 C 216.527,437.589 213.644,436.978 213.303,436.637 C 212.962,436.296 212.119,436.486 211.429,437.059 C 209.928,438.305 203.041,429.101 198.104,419.250 C 198.104,419.250 194.971,413 194.971,413 C 194.971,413 189.486,413 189.486,413 C 186.469,413 184,412.634 184,412.187 C 184,411.740 185.821,408.355 188.046,404.666 C 190.271,400.977 191.840,397.550 191.532,397.052 C 191.224,396.554 189.291,395.595 187.236,394.921 C 185.181,394.247 182.473,393.028 181.218,392.212 C 179.193,390.895 179.101,390.546 180.399,389.114 C 181.203,388.226 184.366,386.150 187.428,384.500 C 192.705,381.656 193.106,381.161 195.135,375 C 196.312,371.425 198.130,366.797 199.175,364.717 C 199.175,364.717 201.074,360.935 201.074,360.935 C 201.074,360.935 203.667,364.016 203.667,364.016 C 211.183,372.948 226.176,374.668 236.379,367.770 C 237.862,366.767 238.352,366.761 238.707,367.737 C 238.955,368.417 239.987,369.992 241.001,371.237 C 241.001,371.237 242.843,373.500 242.843,373.500 C 242.843,373.500 245.922,370.563 245.922,370.563 C 248.161,368.427 249,368.057 249,369.209 C 249,372.963 237.383,380.473 229.842,381.592 C 223.972,382.463 220.797,384.562 221.189,387.313 C 221.881,392.174 234.508,389.847 244.824,382.958 C 255.482,375.841 262.062,363.772 262.351,350.807 C 262.524,343.041 263.873,343.085 264.212,350.868 C 264.445,356.221 265.532,358.383 266.596,355.609 C 266.916,354.774 268.759,353.160 270.690,352.021 C 272.621,350.882 274.443,349.020 274.740,347.885 C 275.159,346.282 275.861,345.931 277.879,346.317 C 280.980,346.910 284,345.503 284,343.465 C 284.667,343.765 286.833,336.944 286.924,337.453 C 288.034,338.139 292,332.828 292,330.655 C 292.889,329.343 294.616,324.196 295.436,322.947 C 297.067,324.300 301.489,322.600 303.010,316.018 C 302.451,314.974 300.616,310.384 298.932,305.816 C 297.248,301.248 294.359,295.235 292.512,292.452 C 289.038,287.219 285,276.700 285,272.885 C 285,269.501 303.052,252.113 311.326,247.527 C 322.829,241.151 328.656,239.790 342.500,240.251 C 352.592,240.587 355.638,241.089 361.657,243.407 C 361.657,243.407 368.814,246.163 368.814,246.163 C 364.662,248.795 372.833,254.149 373,249.638 C 373,250.605 371.330,253.017 364.845,261.414 C 364.845,261.414 362.594,264.328 362.594,264.328 C 362.594,264.328 372.047,263.679 372.047,263.679 C 377.246,263.322 384.650,262.817 388.500,262.559 C 392.350,262.301 387.910,262.991 378.632,264.093 C 369.354,265.195 361.496,265.830 362.332,260.021 C 361.438,259.222 349.967,257.359 341,256.557 C 334.197,255.948 323.454,257.150 323.630,258.500 C 323.702,259.050 325.052,259.797 326.630,260.159 C 328.208,260.521 331.975,261.368 335,262.041 C 341.242,263.430 346,265.586 346,267.026 C 346,267.562 345.017,268 343.816,268 C 337.527,268 328,276.198 328,281.610 C 328,284.697 326.234,285.698 319.908,286.197 C 316.306,286.481 313.214,287.423 311.219,288.844 C 307.622,291.405 303.226,300.053 302.387,306.220 C 301.835,310.275 302.204,311.098 309.402,321.863 C 313.581,328.112 317,333.668 317,334.209 C 317,334.750 315.157,337.288 312.903,339.847 C 306.851,346.720 293.921,367.999 283.035,389 C 272.160,409.982 268.893,415.090 261.077,423.328 C 250.031,434.970 235.722,440.044 219.711,437.996" stroke="#F89A35" fill="#F89A35" stroke-width="1"/>
  <path id="68" d="M 397.661,353.343 C 399.756,349.257 400.092,347.396 399.812,341.445 C 399.532,335.489 398.939,333.497 396.003,328.653 C 393.219,324.060 391.468,322.398 387.221,320.320 C 382.635,318.076 381.104,317.809 375.933,318.349 C 369.755,318.995 364.249,321.188 363.427,323.330 C 362.698,325.229 354.791,324.435 353.234,322.306 C 352.375,321.131 350.927,320.634 348.962,320.840 C 339.557,321.826 329.033,310.967 329.006,300.250 C 328.999,297.290 331.083,297.395 334.001,300.502 C 338.498,305.288 338.093,305.288 380.500,300.490 C 400.787,298.195 413.132,296.356 416.103,295.186 C 417.535,294.622 420.368,292.220 422.399,289.847 C 426.760,284.753 427.974,285.549 427.963,293.500 C 427.951,302.223 422.825,310.061 416.088,311.656 C 414.665,311.993 412.757,312.912 406.689,313.439 C 405.485,313.684 402.812,314.156 400.750,314.488 C 398.688,314.820 397,315.566 397,316.148 C 397,316.730 398.994,319.423 401.430,322.133 C 409.499,331.108 411.801,344.602 406.654,352.756 C 404.814,355.671 403.274,357.005 401.737,357.014 C 400.506,357.022 398.528,357.288 397.339,357.607 C 395.189,358.184 395.191,358.161 397.661,353.343" stroke="#A03A17" fill="#A03A17" stroke-width="1"/>
  <path id="67" d="M 507.500,201.352 C 505.300,200.502 501.126,198.894 498.224,197.777 C 495.322,196.660 491.878,194.906 490.572,193.878 C 489.266,192.850 486.465,191.652 484.348,191.215 C 480.696,190.461 480.484,190.208 480.194,186.247 C 479.893,182.136 479.839,182.081 476.694,182.677 C 474.937,183.010 467.581,185.244 460.347,187.641 C 453.113,190.038 446.813,191.987 446.347,191.970 C 444.378,191.899 449.921,189.549 460.648,185.908 C 482.721,178.415 503.947,175.668 528.042,177.186 C 535.340,177.646 541.478,177.855 541.683,177.650 C 541.888,177.445 540.468,173.965 538.528,169.917 C 536.588,165.869 535,161.923 535,161.150 C 535,159.149 540.975,160.260 550.030,163.945 C 559.796,167.919 561.077,169.504 552.056,166.452 C 543.353,163.508 543.775,163.530 542.266,165.946 C 541.296,167.499 541.348,168.737 542.525,172.072 C 544.503,177.679 544.400,178.692 541.666,180.483 C 539.613,181.828 538.981,181.839 536.416,180.567 C 534.657,179.695 529.649,178.997 523.794,178.810 C 515.046,178.530 513.942,178.697 512.607,180.500 C 511.793,181.600 510.916,183.285 510.658,184.245 C 510.289,185.618 510.654,185.874 512.371,185.443 C 515.176,184.739 519.962,189.303 517.834,190.653 C 517.100,191.119 515.748,192.937 514.829,194.693 C 513.497,197.239 513.414,198.099 517,199.473 C 517,200.504 513.813,202.943 512.500,202.917 C 511.950,202.906 509.700,202.202 507.500,201.352" stroke="#FDC150" fill="#FDC150" stroke-width="1"/>
  <path id="62" d="M 374.255,236.750 C 363.959,219.688 360.634,200.826 364.677,182.426 C 366.391,174.628 372.710,160.500 374.485,160.500 C 375.072,160.500 375.344,163.532 375.157,168.007 C 374.756,177.625 376.973,187.224 381.969,197.500 C 387.101,208.056 388.484,209.876 390.133,208.250 C 392.749,205.670 392.937,207.138 390.468,210.869 C 386.946,216.191 384.357,223.368 383.385,230.500 C 382.573,236.458 382.563,236.472 382.011,232.500 C 382.011,232.500 381.455,228.500 381.455,228.500 C 381.455,228.500 379.702,231.750 379.702,231.750 C 378.738,233.538 377.499,235 376.949,235 C 376.399,235 376.635,236.327 377.474,237.950 C 379.204,241.295 379.332,242 378.211,242 C 377.777,242 375.997,239.637 374.255,236.750" stroke="#F9C178" fill="#F9C178" stroke-width="1"/>
  <path id="60" d="M 348.393,738.581 C 348.058,737.709 348.071,735.854 348.421,734.460 C 350.004,728.153 344.105,719 338.458,719 C 336.225,719 334,716.537 334,714.066 C 334,712.660 341.560,712.694 344.211,714.113 C 349.409,716.895 354.103,724.349 354.180,729.945 C 354.267,736.262 349.966,742.681 348.393,738.581" stroke="#D9551B" fill="#D9551B" stroke-width="1"/>
  <path id="3" d="M 218.245,355.461 C 212.634,353.102 210.351,345.558 213.944,341.250 C 216.523,338.158 217.198,338.427 216.479,342.260 C 215.262,348.746 219.318,353.506 223.950,351.027 C 225.064,350.431 226.256,348.830 226.597,347.471 C 227.456,344.047 230,344.276 230,347.777 C 230,353.888 223.935,357.853 218.245,355.461" stroke="#F5768E" fill="#F5768E" stroke-width="1"/>
  <path id="28" d="M 383.486,230.250 C 385.384,215.014 394.960,201.235 408.931,193.633 C 414.980,190.342 422.874,188.029 428.117,188.012 C 431.816,188 442,191.668 442,193.012 C 442,193.422 440.640,194.320 438.978,195.009 C 427.345,199.828 407.150,214.114 393.404,227.250 C 388.368,232.062 383.914,236 383.508,236 C 383.102,236 383.092,233.413 383.486,230.250" stroke="#C0511F" fill="#C0511F" stroke-width="1"/>
  <path id="26" d="M 369.242,363.506 C 360.205,359.578 354.618,351.748 355.190,343.810 C 355.190,343.810 355.500,339.500 355.500,339.500 C 355.500,339.500 359.556,339.817 359.556,339.817 C 365.166,340.256 368.400,337.580 368.400,332.499 C 368.400,329.636 367.743,328.176 365.642,326.369 C 364.125,325.064 363.164,323.544 363.506,322.991 C 364.765,320.955 370.111,318.958 375.933,318.349 C 381.104,317.809 382.635,318.076 387.221,320.320 C 397.572,325.384 402.911,340.089 398.547,351.515 C 394.536,362.018 379.744,368.070 369.242,363.506" stroke="#75290D" fill="#75290D" stroke-width="1"/>
  <path id="24" d="M 384.425,202.433 C 377.979,190.906 375.647,182.838 375.385,171.160 C 375.257,165.473 374.929,160.595 374.655,160.321 C 374.381,160.047 377.063,157.188 380.615,153.969 C 390.947,144.606 402.814,141.356 408.575,146.311 C 411.061,148.450 411.282,149.275 411.528,157.381 C 411.756,164.867 412.251,167.068 414.940,172.530 C 416.946,176.604 419.884,180.493 423.046,183.259 C 423.046,183.259 428.007,187.598 428.007,187.598 C 428.007,187.598 421.753,188.883 421.753,188.883 C 413.349,190.609 405.294,195.063 396.799,202.680 C 392.922,206.156 389.379,209 388.924,209 C 388.469,209 386.445,206.045 384.425,202.433" stroke="#FEE8AE" fill="#FEE8AE" stroke-width="1"/>
  <path id="22" d="M 355.455,337.545 C 352.161,334.251 352.206,329.703 355.566,326.343 C 357.647,324.262 358.735,323.897 361.313,324.413 C 365.864,325.323 368.400,328.255 368.400,332.607 C 368.400,339.483 360.432,342.522 355.455,337.545" stroke="#FEFEFE" fill="#FEFEFE" stroke-width="1"/>
</svg>
